{
 "cells": [
  {
   "cell_type": "code",
   "execution_count": 1,
   "metadata": {},
   "outputs": [],
   "source": [
    "# Library to process MIDI files\n",
    "import tensorflow as tf\n",
    "from tensorflow.keras.layers import LSTM, Dense, Activation, Dropout, Flatten\n",
    "from tensorflow.keras.preprocessing import sequence\n",
    "from tensorflow.keras.models import Sequential\n",
    "from tensorflow.keras.optimizers import Adam\n",
    "from tensorflow.keras.callbacks import ModelCheckpoint\n",
    "from tensorflow.keras.layers import Embedding\n",
    "\n",
    "\n",
    "from sklearn.preprocessing import MinMaxScaler\n",
    "import numpy as np\n",
    "import pandas as pd"
   ]
  },
  {
   "cell_type": "code",
   "execution_count": 2,
   "metadata": {},
   "outputs": [],
   "source": [
    "import mido\n",
    "from mido import MidiFile, MidiTrack, Message"
   ]
  },
  {
   "cell_type": "code",
   "execution_count": 3,
   "metadata": {
    "scrolled": true
   },
   "outputs": [
    {
     "data": {
      "text/html": [
       "<div>\n",
       "<style scoped>\n",
       "    .dataframe tbody tr th:only-of-type {\n",
       "        vertical-align: middle;\n",
       "    }\n",
       "\n",
       "    .dataframe tbody tr th {\n",
       "        vertical-align: top;\n",
       "    }\n",
       "\n",
       "    .dataframe thead th {\n",
       "        text-align: right;\n",
       "    }\n",
       "</style>\n",
       "<table border=\"1\" class=\"dataframe\">\n",
       "  <thead>\n",
       "    <tr style=\"text-align: right;\">\n",
       "      <th></th>\n",
       "      <th>1-Calming</th>\n",
       "      <th>2-Sports</th>\n",
       "      <th>3-Mysterious</th>\n",
       "      <th>4-Nostalgia</th>\n",
       "      <th>5-Happy</th>\n",
       "    </tr>\n",
       "  </thead>\n",
       "  <tbody>\n",
       "    <tr>\n",
       "      <td>0</td>\n",
       "      <td>Big Sky</td>\n",
       "      <td>Shiatsu</td>\n",
       "      <td>Vague</td>\n",
       "      <td>All That You Will Be</td>\n",
       "      <td>Shadows in Vienna</td>\n",
       "    </tr>\n",
       "    <tr>\n",
       "      <td>1</td>\n",
       "      <td>Maybe Another Day</td>\n",
       "      <td>Kermode</td>\n",
       "      <td>Cloak</td>\n",
       "      <td>Fractured Memories</td>\n",
       "      <td>Magic Forest</td>\n",
       "    </tr>\n",
       "    <tr>\n",
       "      <td>2</td>\n",
       "      <td>The Human Derivative</td>\n",
       "      <td>Run Till Dawn</td>\n",
       "      <td>Lethal Secrets</td>\n",
       "      <td>When It Rains It Pours</td>\n",
       "      <td>Mistaken by Accident</td>\n",
       "    </tr>\n",
       "    <tr>\n",
       "      <td>3</td>\n",
       "      <td>The Crossing</td>\n",
       "      <td>Whatever Man</td>\n",
       "      <td>Remote</td>\n",
       "      <td>Near Her</td>\n",
       "      <td>New Orleans Diner</td>\n",
       "    </tr>\n",
       "    <tr>\n",
       "      <td>4</td>\n",
       "      <td>A Presence Felt</td>\n",
       "      <td>Body Work</td>\n",
       "      <td>The Mole</td>\n",
       "      <td>Days</td>\n",
       "      <td>Life in Tinseltown</td>\n",
       "    </tr>\n",
       "    <tr>\n",
       "      <td>5</td>\n",
       "      <td>No Good Byes</td>\n",
       "      <td>Space Palace</td>\n",
       "      <td>The Unveiling</td>\n",
       "      <td>Mornings</td>\n",
       "      <td>Harlem Rollout</td>\n",
       "    </tr>\n",
       "    <tr>\n",
       "      <td>6</td>\n",
       "      <td>Awash</td>\n",
       "      <td>Black Coffee</td>\n",
       "      <td>Ginger Root</td>\n",
       "      <td>Always the Same</td>\n",
       "      <td>Summertime Memory</td>\n",
       "    </tr>\n",
       "    <tr>\n",
       "      <td>7</td>\n",
       "      <td>A Whisper In The Dark</td>\n",
       "      <td>Unleash My Halo</td>\n",
       "      <td>Fiona</td>\n",
       "      <td>Through These Doors</td>\n",
       "      <td>Countryside Living</td>\n",
       "    </tr>\n",
       "    <tr>\n",
       "      <td>8</td>\n",
       "      <td>Whisper of the Pines</td>\n",
       "      <td>Way Way Back</td>\n",
       "      <td>Dust Blaster</td>\n",
       "      <td>Heading Home Again</td>\n",
       "      <td>On the Rooftop</td>\n",
       "    </tr>\n",
       "    <tr>\n",
       "      <td>9</td>\n",
       "      <td>Traces</td>\n",
       "      <td>The Sooner The Better</td>\n",
       "      <td>Fighter Jet</td>\n",
       "      <td>A Lighthouse In Space</td>\n",
       "      <td>The Upper Hand</td>\n",
       "    </tr>\n",
       "    <tr>\n",
       "      <td>10</td>\n",
       "      <td>Onthou</td>\n",
       "      <td>No Sugar Coated Love</td>\n",
       "      <td>Ticking Clock</td>\n",
       "      <td>Rain on me</td>\n",
       "      <td>The Joyous and the Sad</td>\n",
       "    </tr>\n",
       "    <tr>\n",
       "      <td>11</td>\n",
       "      <td>Happy Days Are Long Awaited</td>\n",
       "      <td>Kraken</td>\n",
       "      <td>Stasis</td>\n",
       "      <td>Here to Stay</td>\n",
       "      <td>No Tears for Me Please</td>\n",
       "    </tr>\n",
       "    <tr>\n",
       "      <td>12</td>\n",
       "      <td>Not Available</td>\n",
       "      <td>Take Cover</td>\n",
       "      <td>Not Available</td>\n",
       "      <td>Nights</td>\n",
       "      <td>Red and Gold</td>\n",
       "    </tr>\n",
       "    <tr>\n",
       "      <td>13</td>\n",
       "      <td>Not Available</td>\n",
       "      <td>Not Available</td>\n",
       "      <td>Not Available</td>\n",
       "      <td>Rivers</td>\n",
       "      <td>Barefoot</td>\n",
       "    </tr>\n",
       "    <tr>\n",
       "      <td>14</td>\n",
       "      <td>Not Available</td>\n",
       "      <td>Not Available</td>\n",
       "      <td>Not Available</td>\n",
       "      <td>The world in Our Arms</td>\n",
       "      <td>Not Available</td>\n",
       "    </tr>\n",
       "    <tr>\n",
       "      <td>15</td>\n",
       "      <td>Not Available</td>\n",
       "      <td>Not Available</td>\n",
       "      <td>Not Available</td>\n",
       "      <td>Coming Home Again</td>\n",
       "      <td>Not Available</td>\n",
       "    </tr>\n",
       "    <tr>\n",
       "      <td>16</td>\n",
       "      <td>Not Available</td>\n",
       "      <td>Not Available</td>\n",
       "      <td>Not Available</td>\n",
       "      <td>Willder</td>\n",
       "      <td>Not Available</td>\n",
       "    </tr>\n",
       "  </tbody>\n",
       "</table>\n",
       "</div>"
      ],
      "text/plain": [
       "                       1-Calming                2-Sports     3-Mysterious  \\\n",
       "0                        Big Sky                 Shiatsu            Vague   \n",
       "1              Maybe Another Day                 Kermode            Cloak   \n",
       "2           The Human Derivative           Run Till Dawn   Lethal Secrets   \n",
       "3                   The Crossing            Whatever Man           Remote   \n",
       "4                A Presence Felt               Body Work         The Mole   \n",
       "5                   No Good Byes            Space Palace    The Unveiling   \n",
       "6                          Awash            Black Coffee      Ginger Root   \n",
       "7          A Whisper In The Dark         Unleash My Halo            Fiona   \n",
       "8           Whisper of the Pines            Way Way Back     Dust Blaster   \n",
       "9                         Traces   The Sooner The Better      Fighter Jet   \n",
       "10                        Onthou    No Sugar Coated Love    Ticking Clock   \n",
       "11   Happy Days Are Long Awaited                  Kraken           Stasis   \n",
       "12                 Not Available              Take Cover    Not Available   \n",
       "13                 Not Available           Not Available    Not Available   \n",
       "14                 Not Available           Not Available    Not Available   \n",
       "15                 Not Available           Not Available    Not Available   \n",
       "16                 Not Available           Not Available    Not Available   \n",
       "\n",
       "                4-Nostalgia                 5-Happy  \n",
       "0      All That You Will Be       Shadows in Vienna  \n",
       "1        Fractured Memories            Magic Forest  \n",
       "2    When It Rains It Pours    Mistaken by Accident  \n",
       "3                  Near Her       New Orleans Diner  \n",
       "4                      Days      Life in Tinseltown  \n",
       "5                  Mornings          Harlem Rollout  \n",
       "6           Always the Same       Summertime Memory  \n",
       "7       Through These Doors      Countryside Living  \n",
       "8        Heading Home Again          On the Rooftop  \n",
       "9     A Lighthouse In Space          The Upper Hand  \n",
       "10               Rain on me  The Joyous and the Sad  \n",
       "11             Here to Stay  No Tears for Me Please  \n",
       "12                   Nights            Red and Gold  \n",
       "13                   Rivers                Barefoot  \n",
       "14    The world in Our Arms           Not Available  \n",
       "15        Coming Home Again           Not Available  \n",
       "16                  Willder           Not Available  "
      ]
     },
     "execution_count": 3,
     "metadata": {},
     "output_type": "execute_result"
    }
   ],
   "source": [
    "music_list = pd.read_csv('music_list.csv')\n",
    "music_list = music_list.fillna('Not Available')\n",
    "music_list"
   ]
  },
  {
   "cell_type": "code",
   "execution_count": 4,
   "metadata": {},
   "outputs": [],
   "source": [
    "# find a filename that contains a string\n",
    "\n",
    "# import os\n",
    "\n",
    "# folder_name = '1-Calming'\n",
    "# keyword = 'A Presence Felt'\n",
    "# for fname in os.listdir('midi/'+folder_name):\n",
    "#     if keyword in fname:\n",
    "#         print(fname, \"has the keyword\")"
   ]
  },
  {
   "cell_type": "code",
   "execution_count": 5,
   "metadata": {
    "scrolled": false
   },
   "outputs": [
    {
     "name": "stdout",
     "output_type": "stream",
     "text": [
      "['ES_Big Sky - Gavin Luke.mp3.mid', 'ES_The Crossing - Gavin Luke.mp3.mid', '.DS_Store', 'ES_Maybe Another Day - Spectacles Wallet and Watch.mp3.mid', 'ES_No Good Byes - Amaranth Cove.mp3.mid', 'ES_A Presence Felt - Gavin Luke.mp3.mid', 'ES_Awash - Gavin Luke.mp3.mid', 'ES_A Whisper In The Dark - Gavin Luke.mp3.mid', 'ES_Onthou - Ever So Blue.mp3.mid', 'ES_The Human Derivative - Amaranth Cove.mp3.mid', 'ES_Happy Days Are Long Awaited - River Foxcroft.mp3.mid']\n"
     ]
    }
   ],
   "source": [
    "# prepare a dictionary for song names for each category\n",
    "\n",
    "import os\n",
    "song_dict = {}\n",
    "for folder_name in music_list.columns:\n",
    "#     print(folder_name, '\\n')\n",
    "    song_dict[folder_name] = []\n",
    "    for fname in os.listdir('midi/'+folder_name):\n",
    "#         print('fname: ', fname)\n",
    "        song_dict[folder_name].append(fname)\n",
    "\n",
    "print(song_dict['1-Calming'])"
   ]
  },
  {
   "cell_type": "code",
   "execution_count": 6,
   "metadata": {},
   "outputs": [
    {
     "data": {
      "text/plain": [
       "dict_keys(['1-Calming', '2-Sports', '3-Mysterious', '4-Nostalgia', '5-Happy'])"
      ]
     },
     "execution_count": 6,
     "metadata": {},
     "output_type": "execute_result"
    }
   ],
   "source": [
    "song_dict.keys()"
   ]
  },
  {
   "cell_type": "code",
   "execution_count": null,
   "metadata": {},
   "outputs": [
    {
     "name": "stdout",
     "output_type": "stream",
     "text": [
      "midi/1-Calming/ES_Big Sky - Gavin Luke.mp3.mid\n",
      "<meta message set_tempo tempo=500000 time=0>\n",
      "program_change channel=0 program=0 time=0\n",
      "note_on channel=0 note=54 velocity=43 time=0\n",
      "note_on channel=0 note=61 velocity=23 time=0\n",
      "note_on channel=0 note=70 velocity=84 time=0\n",
      "note_on channel=0 note=74 velocity=33 time=0\n",
      "note_on channel=0 note=67 velocity=68 time=0.010869565217391304\n",
      "note_off channel=0 note=54 velocity=64 time=0.010869565217391304\n",
      "note_off channel=0 note=74 velocity=64 time=0\n",
      "note_off channel=0 note=61 velocity=64 time=0.010869565217391304\n",
      "note_on channel=0 note=74 velocity=29 time=0\n",
      "note_on channel=0 note=55 velocity=41 time=0.010869565217391304\n",
      "note_off channel=0 note=74 velocity=64 time=0.08695652173913043\n",
      "note_off channel=0 note=55 velocity=64 time=1.8369565217391304\n",
      "note_on channel=0 note=66 velocity=34 time=0\n",
      "note_off channel=0 note=67 velocity=64 time=0\n",
      "note_on channel=0 note=74 velocity=97 time=0.010869565217391304\n",
      "note_off channel=0 note=66 velocity=64 time=0.010869565217391304\n",
      "note_on channel=0 note=77 velocity=29 time=0.010869565217391304\n",
      "note_on channel=0 note=58 velocity=71 time=0.010869565217391304\n",
      "note_on channel=0 note=67 velocity=28 time=0.021739130434782608\n",
      "note_off channel=0 note=67 velocity=64 time=0.13043478260869565\n",
      "note_on channel=0 note=67 velocity=11 time=0.06521739130434782\n",
      "note_off channel=0 note=67 velocity=64 time=0.06521739130434782\n",
      "note_off channel=0 note=77 velocity=64 time=0.8478260869565217\n",
      "note_off channel=0 note=58 velocity=64 time=0.03260869565217391\n",
      "note_on channel=0 note=77 velocity=13 time=0.021739130434782608\n",
      "note_off channel=0 note=74 velocity=64 time=0.021739130434782608\n",
      "note_on channel=0 note=74 velocity=36 time=0.010869565217391304\n",
      "note_off channel=0 note=77 velocity=64 time=0.043478260869565216\n",
      "note_on channel=0 note=58 velocity=32 time=0.03260869565217391\n",
      "note_off channel=0 note=74 velocity=64 time=0.2717391304347826\n",
      "note_off channel=0 note=58 velocity=64 time=0.043478260869565216\n",
      "note_on channel=0 note=74 velocity=17 time=0.043478260869565216\n",
      "note_on channel=0 note=58 velocity=30 time=0.08695652173913043\n",
      "note_off channel=0 note=74 velocity=64 time=0\n",
      "note_on channel=0 note=74 velocity=13 time=0.15217391304347827\n",
      "note_on channel=0 note=67 velocity=82 time=0.07608695652173914\n",
      "note_off channel=0 note=74 velocity=64 time=0.06521739130434782\n",
      "note_on channel=0 note=74 velocity=27 time=0.03260869565217391\n",
      "note_off channel=0 note=58 velocity=64 time=0.010869565217391304\n",
      "note_off channel=0 note=70 velocity=64 time=0\n",
      "note_on channel=0 note=86 velocity=29 time=0\n",
      "note_on channel=0 note=70 velocity=41 time=0.010869565217391304\n",
      "note_on channel=0 note=49 velocity=48 time=0.021739130434782608\n",
      "note_on channel=0 note=63 velocity=52 time=0.010869565217391304\n",
      "note_off channel=0 note=49 velocity=64 time=0.010869565217391304\n",
      "note_on channel=0 note=51 velocity=65 time=0\n",
      "note_off channel=0 note=70 velocity=64 time=0\n",
      "note_off channel=0 note=74 velocity=64 time=0.021739130434782608\n",
      "note_on channel=0 note=74 velocity=20 time=0.021739130434782608\n",
      "note_on channel=0 note=58 velocity=13 time=0.010869565217391304\n",
      "note_on channel=0 note=70 velocity=18 time=0.021739130434782608\n",
      "note_off channel=0 note=58 velocity=64 time=0.010869565217391304\n",
      "note_off channel=0 note=67 velocity=64 time=0.15217391304347827\n",
      "note_off channel=0 note=70 velocity=64 time=0\n",
      "note_on channel=0 note=70 velocity=21 time=0.010869565217391304\n",
      "note_off channel=0 note=86 velocity=64 time=0.043478260869565216\n",
      "note_off channel=0 note=74 velocity=64 time=0.043478260869565216\n",
      "note_on channel=0 note=67 velocity=57 time=0.021739130434782608\n",
      "note_off channel=0 note=51 velocity=64 time=0.2391304347826087\n",
      "note_on channel=0 note=52 velocity=24 time=0.021739130434782608\n",
      "note_off channel=0 note=52 velocity=64 time=0.03260869565217391\n",
      "note_on channel=0 note=51 velocity=44 time=0.021739130434782608\n",
      "note_on channel=0 note=74 velocity=9 time=0.06521739130434782\n",
      "note_off channel=0 note=74 velocity=64 time=0.14130434782608695\n",
      "note_on channel=0 note=86 velocity=13 time=0.14130434782608695\n",
      "note_on channel=0 note=58 velocity=10 time=0.010869565217391304\n",
      "note_on channel=0 note=74 velocity=16 time=0.021739130434782608\n",
      "note_off channel=0 note=67 velocity=64 time=0.08695652173913043\n",
      "note_on channel=0 note=67 velocity=54 time=0.010869565217391304\n",
      "note_off channel=0 note=58 velocity=64 time=0.08695652173913043\n",
      "note_off channel=0 note=70 velocity=64 time=0.19565217391304346\n",
      "note_off channel=0 note=86 velocity=64 time=0.010869565217391304\n",
      "note_on channel=0 note=70 velocity=20 time=0.03260869565217391\n",
      "note_off channel=0 note=74 velocity=64 time=0.06521739130434782\n",
      "note_off channel=0 note=70 velocity=64 time=0.10869565217391304\n",
      "note_off channel=0 note=51 velocity=64 time=0.08695652173913043\n",
      "note_on channel=0 note=51 velocity=29 time=0.06521739130434782\n",
      "note_on channel=0 note=74 velocity=19 time=0.22826086956521738\n",
      "note_off channel=0 note=63 velocity=64 time=0.010869565217391304\n",
      "note_on channel=0 note=70 velocity=25 time=0.10869565217391304\n",
      "note_on channel=0 note=50 velocity=13 time=0.021739130434782608\n",
      "note_off channel=0 note=51 velocity=64 time=0\n",
      "note_off channel=0 note=50 velocity=64 time=0.043478260869565216\n",
      "note_on channel=0 note=51 velocity=28 time=0\n",
      "note_off channel=0 note=74 velocity=64 time=0.19565217391304346\n",
      "note_on channel=0 note=50 velocity=11 time=0.03260869565217391\n",
      "note_off channel=0 note=51 velocity=64 time=0\n",
      "note_off channel=0 note=50 velocity=64 time=0.03260869565217391\n",
      "note_on channel=0 note=51 velocity=23 time=0.05434782608695652\n",
      "note_on channel=0 note=58 velocity=12 time=0.010869565217391304\n",
      "note_off channel=0 note=51 velocity=64 time=0.07608695652173914\n",
      "note_on channel=0 note=51 velocity=23 time=0.010869565217391304\n",
      "note_off channel=0 note=70 velocity=64 time=0.22826086956521738\n",
      "note_off channel=0 note=51 velocity=64 time=0.05434782608695652\n",
      "note_on channel=0 note=51 velocity=26 time=0.010869565217391304\n",
      "note_off channel=0 note=58 velocity=64 time=0.021739130434782608\n",
      "note_on channel=0 note=70 velocity=11 time=0.043478260869565216\n",
      "note_off channel=0 note=70 velocity=64 time=0.06521739130434782\n",
      "note_off channel=0 note=67 velocity=64 time=0.010869565217391304\n",
      "midi/1-Calming/ES_The Crossing - Gavin Luke.mp3.mid\n",
      "<meta message set_tempo tempo=500000 time=0>\n",
      "program_change channel=0 program=0 time=0\n",
      "note_on channel=0 note=74 velocity=57 time=0\n",
      "note_on channel=0 note=47 velocity=57 time=0.021739130434782608\n",
      "note_on channel=0 note=62 velocity=49 time=0.22826086956521738\n",
      "note_off channel=0 note=47 velocity=64 time=0.10869565217391304\n",
      "note_on channel=0 note=47 velocity=43 time=0.010869565217391304\n",
      "note_on channel=0 note=54 velocity=35 time=0.11956521739130435\n",
      "note_off channel=0 note=74 velocity=64 time=0.043478260869565216\n",
      "note_on channel=0 note=66 velocity=39 time=0.16304347826086957\n",
      "note_off channel=0 note=47 velocity=64 time=0.06521739130434782\n",
      "note_on channel=0 note=47 velocity=30 time=0.010869565217391304\n",
      "note_off channel=0 note=54 velocity=64 time=0.15217391304347827\n",
      "note_off channel=0 note=66 velocity=64 time=0.010869565217391304\n",
      "note_off channel=0 note=47 velocity=64 time=0.05434782608695652\n",
      "note_on channel=0 note=66 velocity=25 time=0.13043478260869565\n",
      "note_on channel=0 note=47 velocity=14 time=0.043478260869565216\n",
      "note_off channel=0 note=47 velocity=64 time=0.043478260869565216\n",
      "note_on channel=0 note=47 velocity=12 time=0.13043478260869565\n",
      "note_off channel=0 note=47 velocity=64 time=0.03260869565217391\n",
      "note_on channel=0 note=54 velocity=42 time=0\n",
      "note_on channel=0 note=73 velocity=14 time=0.021739130434782608\n",
      "note_off channel=0 note=73 velocity=64 time=0.05434782608695652\n",
      "note_on channel=0 note=73 velocity=12 time=0.010869565217391304\n",
      "note_on channel=0 note=74 velocity=51 time=0.10869565217391304\n",
      "note_off channel=0 note=73 velocity=64 time=0.010869565217391304\n",
      "note_off channel=0 note=66 velocity=64 time=0.16304347826086957\n",
      "note_off channel=0 note=54 velocity=64 time=0.021739130434782608\n",
      "note_on channel=0 note=47 velocity=74 time=0.010869565217391304\n",
      "note_on channel=0 note=54 velocity=30 time=0\n",
      "note_off channel=0 note=62 velocity=64 time=0.021739130434782608\n",
      "note_off channel=0 note=54 velocity=64 time=0.021739130434782608\n",
      "note_on channel=0 note=62 velocity=26 time=0.03260869565217391\n",
      "note_on channel=0 note=73 velocity=18 time=0\n",
      "note_off channel=0 note=74 velocity=64 time=0\n",
      "note_off channel=0 note=62 velocity=64 time=0.03260869565217391\n",
      "note_off channel=0 note=73 velocity=64 time=0\n",
      "note_on channel=0 note=62 velocity=25 time=0.03260869565217391\n",
      "note_off channel=0 note=62 velocity=64 time=0.03260869565217391\n",
      "note_on channel=0 note=62 velocity=49 time=0.010869565217391304\n",
      "note_on channel=0 note=73 velocity=15 time=0.021739130434782608\n",
      "note_off channel=0 note=73 velocity=64 time=0.043478260869565216\n",
      "note_off channel=0 note=47 velocity=64 time=0.07608695652173914\n",
      "note_on channel=0 note=48 velocity=35 time=0\n",
      "note_on channel=0 note=47 velocity=58 time=0.021739130434782608\n",
      "note_off channel=0 note=48 velocity=64 time=0\n",
      "note_on channel=0 note=54 velocity=34 time=0.10869565217391304\n",
      "note_on channel=0 note=73 velocity=18 time=0.3913043478260869\n",
      "note_off channel=0 note=54 velocity=64 time=0.09782608695652173\n",
      "note_on channel=0 note=66 velocity=23 time=0.021739130434782608\n",
      "note_off channel=0 note=47 velocity=64 time=0.13043478260869565\n",
      "note_off channel=0 note=73 velocity=64 time=0\n",
      "note_on channel=0 note=47 velocity=29 time=0.03260869565217391\n",
      "note_off channel=0 note=47 velocity=64 time=0.05434782608695652\n",
      "note_on channel=0 note=47 velocity=35 time=0.010869565217391304\n",
      "note_off channel=0 note=47 velocity=64 time=0.17391304347826086\n",
      "note_on channel=0 note=54 velocity=39 time=0.010869565217391304\n",
      "note_on channel=0 note=47 velocity=38 time=0.021739130434782608\n",
      "note_off channel=0 note=66 velocity=64 time=0\n",
      "note_off channel=0 note=47 velocity=64 time=0.021739130434782608\n",
      "note_on channel=0 note=47 velocity=36 time=0.010869565217391304\n",
      "note_on channel=0 note=73 velocity=20 time=0.19565217391304346\n",
      "note_off channel=0 note=47 velocity=64 time=0.043478260869565216\n",
      "note_on channel=0 note=47 velocity=31 time=0.010869565217391304\n",
      "note_off channel=0 note=73 velocity=64 time=0.010869565217391304\n",
      "note_on channel=0 note=66 velocity=53 time=0.03260869565217391\n",
      "note_on channel=0 note=46 velocity=66 time=0.05434782608695652\n",
      "note_off channel=0 note=47 velocity=64 time=0\n",
      "note_off channel=0 note=54 velocity=64 time=0\n",
      "note_on channel=0 note=74 velocity=69 time=0.010869565217391304\n",
      "note_on channel=0 note=71 velocity=15 time=0.010869565217391304\n",
      "note_off channel=0 note=46 velocity=64 time=0.010869565217391304\n",
      "note_on channel=0 note=47 velocity=81 time=0\n",
      "note_off channel=0 note=62 velocity=64 time=0\n",
      "note_off channel=0 note=71 velocity=64 time=0.09782608695652173\n",
      "note_on channel=0 note=62 velocity=41 time=0.14130434782608695\n",
      "note_off channel=0 note=47 velocity=64 time=0.05434782608695652\n",
      "note_on channel=0 note=47 velocity=66 time=0.010869565217391304\n",
      "note_on channel=0 note=54 velocity=36 time=0.13043478260869565\n",
      "note_off channel=0 note=54 velocity=64 time=0.08695652173913043\n",
      "note_off channel=0 note=74 velocity=64 time=0\n",
      "note_on channel=0 note=54 velocity=26 time=0.07608695652173914\n",
      "note_off channel=0 note=54 velocity=64 time=0.11956521739130435\n",
      "note_on channel=0 note=54 velocity=21 time=0.043478260869565216\n",
      "note_on channel=0 note=75 velocity=21 time=0.03260869565217391\n",
      "note_off channel=0 note=54 velocity=64 time=0.010869565217391304\n",
      "note_on channel=0 note=71 velocity=25 time=0.05434782608695652\n",
      "note_off channel=0 note=75 velocity=64 time=0.021739130434782608\n",
      "note_off channel=0 note=62 velocity=64 time=0.010869565217391304\n",
      "note_on channel=0 note=46 velocity=36 time=0.010869565217391304\n",
      "note_off channel=0 note=47 velocity=64 time=0\n",
      "note_off channel=0 note=66 velocity=64 time=0.010869565217391304\n",
      "note_off channel=0 note=46 velocity=64 time=0.021739130434782608\n",
      "note_on channel=0 note=59 velocity=35 time=0.05434782608695652\n",
      "note_on channel=0 note=74 velocity=40 time=0.043478260869565216\n",
      "note_on channel=0 note=63 velocity=34 time=0.010869565217391304\n",
      "note_off channel=0 note=59 velocity=64 time=0.021739130434782608\n",
      "note_off channel=0 note=63 velocity=64 time=0\n",
      "note_on channel=0 note=62 velocity=48 time=0.010869565217391304\n",
      "note_on channel=0 note=66 velocity=24 time=0\n",
      "note_on channel=0 note=54 velocity=14 time=0.021739130434782608\n"
     ]
    },
    {
     "name": "stdout",
     "output_type": "stream",
     "text": [
      "midi/1-Calming/ES_Maybe Another Day - Spectacles Wallet and Watch.mp3.mid\n",
      "<meta message set_tempo tempo=500000 time=0>\n",
      "program_change channel=0 program=0 time=0\n",
      "note_on channel=0 note=60 velocity=70 time=0\n",
      "note_on channel=0 note=67 velocity=58 time=0\n",
      "note_on channel=0 note=76 velocity=64 time=0\n",
      "note_on channel=0 note=84 velocity=32 time=0\n",
      "note_on channel=0 note=86 velocity=16 time=0\n",
      "note_on channel=0 note=91 velocity=19 time=0\n",
      "note_on channel=0 note=47 velocity=68 time=0.010869565217391304\n",
      "note_off channel=0 note=47 velocity=64 time=0.021739130434782608\n",
      "note_on channel=0 note=48 velocity=62 time=0\n",
      "note_off channel=0 note=91 velocity=64 time=0.05434782608695652\n",
      "note_off channel=0 note=86 velocity=64 time=0.06521739130434782\n",
      "note_off channel=0 note=84 velocity=64 time=0.17391304347826086\n",
      "note_on channel=0 note=65 velocity=49 time=0.3695652173913043\n",
      "note_off channel=0 note=67 velocity=64 time=0\n",
      "note_on channel=0 note=86 velocity=12 time=0\n",
      "note_on channel=0 note=95 velocity=20 time=0\n",
      "note_on channel=0 note=79 velocity=16 time=0.010869565217391304\n",
      "note_on channel=0 note=64 velocity=30 time=0.021739130434782608\n",
      "note_off channel=0 note=65 velocity=64 time=0\n",
      "note_on channel=0 note=68 velocity=29 time=0\n",
      "note_off channel=0 note=79 velocity=64 time=0.021739130434782608\n",
      "note_off channel=0 note=48 velocity=64 time=0.021739130434782608\n",
      "note_on channel=0 note=67 velocity=42 time=0\n",
      "note_off channel=0 note=68 velocity=64 time=0\n",
      "note_on channel=0 note=48 velocity=43 time=0.010869565217391304\n",
      "note_off channel=0 note=86 velocity=64 time=0.010869565217391304\n",
      "note_off channel=0 note=64 velocity=64 time=0.043478260869565216\n",
      "note_off channel=0 note=48 velocity=64 time=0.07608695652173914\n",
      "note_off channel=0 note=95 velocity=64 time=0\n",
      "note_on channel=0 note=48 velocity=28 time=0.010869565217391304\n",
      "note_on channel=0 note=55 velocity=12 time=0\n",
      "note_on channel=0 note=47 velocity=32 time=0.03260869565217391\n",
      "note_off channel=0 note=48 velocity=64 time=0\n",
      "note_off channel=0 note=47 velocity=64 time=0.03260869565217391\n",
      "note_off channel=0 note=55 velocity=64 time=0.05434782608695652\n",
      "note_off channel=0 note=67 velocity=64 time=0\n",
      "note_on channel=0 note=91 velocity=40 time=0\n",
      "note_on channel=0 note=93 velocity=28 time=0\n",
      "note_on channel=0 note=95 velocity=38 time=0\n",
      "note_on channel=0 note=67 velocity=71 time=0.010869565217391304\n",
      "note_on channel=0 note=75 velocity=42 time=0\n",
      "note_on channel=0 note=86 velocity=14 time=0\n",
      "note_on channel=0 note=98 velocity=19 time=0\n",
      "note_on channel=0 note=72 velocity=81 time=0.010869565217391304\n",
      "note_on channel=0 note=101 velocity=9 time=0\n",
      "note_on channel=0 note=74 velocity=40 time=0.010869565217391304\n",
      "note_off channel=0 note=75 velocity=64 time=0\n",
      "note_on channel=0 note=43 velocity=49 time=0.010869565217391304\n",
      "note_off channel=0 note=43 velocity=64 time=0.03260869565217391\n",
      "note_on channel=0 note=49 velocity=27 time=0.06521739130434782\n",
      "note_off channel=0 note=101 velocity=64 time=0.010869565217391304\n",
      "note_on channel=0 note=47 velocity=33 time=0.021739130434782608\n",
      "note_off channel=0 note=49 velocity=64 time=0\n",
      "note_off channel=0 note=98 velocity=64 time=0.03260869565217391\n",
      "note_off channel=0 note=47 velocity=64 time=0.010869565217391304\n",
      "note_on channel=0 note=48 velocity=11 time=0\n",
      "note_on channel=0 note=64 velocity=30 time=0.021739130434782608\n",
      "note_off channel=0 note=48 velocity=64 time=0.010869565217391304\n",
      "note_off channel=0 note=64 velocity=64 time=0.010869565217391304\n",
      "note_on channel=0 note=48 velocity=34 time=0.010869565217391304\n",
      "note_off channel=0 note=76 velocity=64 time=0.06521739130434782\n",
      "note_off channel=0 note=86 velocity=64 time=0\n",
      "note_on channel=0 note=47 velocity=33 time=0.010869565217391304\n",
      "note_off channel=0 note=48 velocity=64 time=0\n",
      "note_off channel=0 note=47 velocity=64 time=0.021739130434782608\n",
      "note_on channel=0 note=48 velocity=36 time=0\n",
      "note_on channel=0 note=76 velocity=37 time=0.08695652173913043\n",
      "note_off channel=0 note=93 velocity=64 time=0\n",
      "note_off channel=0 note=95 velocity=64 time=0\n",
      "note_off channel=0 note=48 velocity=64 time=0.010869565217391304\n",
      "note_on channel=0 note=48 velocity=32 time=0.010869565217391304\n",
      "note_off channel=0 note=48 velocity=64 time=0.05434782608695652\n",
      "note_on channel=0 note=48 velocity=36 time=0.010869565217391304\n",
      "note_on channel=0 note=64 velocity=27 time=0.10869565217391304\n",
      "note_off channel=0 note=48 velocity=64 time=0.05434782608695652\n",
      "note_off channel=0 note=74 velocity=64 time=0\n",
      "note_on channel=0 note=44 velocity=40 time=0.010869565217391304\n",
      "note_off channel=0 note=64 velocity=64 time=0.010869565217391304\n",
      "note_off channel=0 note=44 velocity=64 time=0.010869565217391304\n",
      "note_off channel=0 note=60 velocity=64 time=0\n",
      "note_on channel=0 note=74 velocity=42 time=0.021739130434782608\n",
      "note_on channel=0 note=55 velocity=11 time=0.010869565217391304\n",
      "note_on channel=0 note=60 velocity=31 time=0.010869565217391304\n",
      "note_off channel=0 note=74 velocity=64 time=0\n",
      "note_on channel=0 note=48 velocity=32 time=0.010869565217391304\n",
      "note_on channel=0 note=74 velocity=41 time=0\n",
      "note_off channel=0 note=91 velocity=64 time=0.010869565217391304\n",
      "note_off channel=0 note=55 velocity=64 time=0.021739130434782608\n",
      "note_off channel=0 note=48 velocity=64 time=0.010869565217391304\n",
      "note_on channel=0 note=48 velocity=45 time=0.03260869565217391\n",
      "note_on channel=0 note=91 velocity=27 time=0\n",
      "note_off channel=0 note=74 velocity=64 time=0.021739130434782608\n",
      "note_on channel=0 note=74 velocity=39 time=0.010869565217391304\n",
      "note_on channel=0 note=64 velocity=31 time=0.010869565217391304\n",
      "note_off channel=0 note=74 velocity=64 time=0.021739130434782608\n",
      "note_on channel=0 note=74 velocity=37 time=0.03260869565217391\n",
      "note_off channel=0 note=76 velocity=64 time=0\n",
      "note_off channel=0 note=91 velocity=64 time=0.07608695652173914\n",
      "note_off channel=0 note=74 velocity=64 time=0.021739130434782608\n",
      "midi/1-Calming/ES_No Good Byes - Amaranth Cove.mp3.mid\n",
      "<meta message set_tempo tempo=500000 time=0>\n",
      "program_change channel=0 program=0 time=0\n",
      "note_on channel=0 note=73 velocity=61 time=0\n",
      "note_on channel=0 note=43 velocity=41 time=0.010869565217391304\n",
      "note_on channel=0 note=58 velocity=27 time=0\n",
      "note_off channel=0 note=43 velocity=64 time=0.021739130434782608\n",
      "note_on channel=0 note=44 velocity=41 time=0\n",
      "note_off channel=0 note=58 velocity=64 time=0.010869565217391304\n",
      "note_off channel=0 note=44 velocity=64 time=0.03260869565217391\n",
      "note_on channel=0 note=45 velocity=32 time=0\n",
      "note_off channel=0 note=45 velocity=64 time=0.021739130434782608\n",
      "note_on channel=0 note=46 velocity=30 time=0\n",
      "note_on channel=0 note=45 velocity=29 time=0.021739130434782608\n",
      "note_off channel=0 note=46 velocity=64 time=0\n",
      "note_off channel=0 note=45 velocity=64 time=0.021739130434782608\n",
      "note_on channel=0 note=69 velocity=33 time=0.11956521739130435\n",
      "note_on channel=0 note=54 velocity=82 time=0.010869565217391304\n",
      "note_on channel=0 note=77 velocity=63 time=0\n",
      "note_off channel=0 note=69 velocity=64 time=0.010869565217391304\n",
      "note_on channel=0 note=31 velocity=35 time=0.043478260869565216\n",
      "note_off channel=0 note=31 velocity=64 time=0.021739130434782608\n",
      "note_on channel=0 note=32 velocity=24 time=0.10869565217391304\n",
      "note_off channel=0 note=32 velocity=64 time=0.03260869565217391\n",
      "note_off channel=0 note=73 velocity=64 time=0.05434782608695652\n",
      "note_off channel=0 note=77 velocity=64 time=0.010869565217391304\n",
      "note_on channel=0 note=33 velocity=42 time=0.021739130434782608\n",
      "note_on channel=0 note=73 velocity=58 time=0.010869565217391304\n",
      "note_off channel=0 note=33 velocity=64 time=0.021739130434782608\n",
      "note_on channel=0 note=45 velocity=32 time=0.07608695652173914\n",
      "note_off channel=0 note=45 velocity=64 time=0.03260869565217391\n",
      "note_off channel=0 note=54 velocity=64 time=0.03260869565217391\n",
      "note_on channel=0 note=54 velocity=53 time=0.010869565217391304\n",
      "note_on channel=0 note=61 velocity=29 time=0\n",
      "note_off channel=0 note=54 velocity=64 time=0.021739130434782608\n",
      "note_on channel=0 note=55 velocity=43 time=0\n",
      "note_off channel=0 note=61 velocity=64 time=0\n",
      "note_on channel=0 note=54 velocity=45 time=0.021739130434782608\n",
      "note_off channel=0 note=55 velocity=64 time=0\n",
      "note_on channel=0 note=77 velocity=28 time=0\n",
      "note_on channel=0 note=44 velocity=45 time=0.010869565217391304\n",
      "note_on channel=0 note=60 velocity=36 time=0\n",
      "note_off channel=0 note=44 velocity=64 time=0.03260869565217391\n",
      "note_off channel=0 note=77 velocity=64 time=0\n",
      "note_on channel=0 note=77 velocity=14 time=0.010869565217391304\n",
      "note_off channel=0 note=60 velocity=64 time=0.010869565217391304\n",
      "note_on channel=0 note=61 velocity=40 time=0\n",
      "note_on channel=0 note=44 velocity=36 time=0.010869565217391304\n",
      "note_off channel=0 note=54 velocity=64 time=0\n",
      "note_on channel=0 note=54 velocity=47 time=0.010869565217391304\n",
      "note_on channel=0 note=43 velocity=43 time=0.010869565217391304\n",
      "note_off channel=0 note=44 velocity=64 time=0\n",
      "note_off channel=0 note=43 velocity=64 time=0.021739130434782608\n",
      "note_on channel=0 note=44 velocity=39 time=0\n",
      "note_off channel=0 note=77 velocity=64 time=0.010869565217391304\n",
      "note_off channel=0 note=54 velocity=64 time=0.021739130434782608\n",
      "note_on channel=0 note=55 velocity=34 time=0\n",
      "note_off channel=0 note=44 velocity=64 time=0.010869565217391304\n",
      "note_on channel=0 note=46 velocity=31 time=0.010869565217391304\n",
      "note_off channel=0 note=55 velocity=64 time=0.010869565217391304\n",
      "note_on channel=0 note=54 velocity=35 time=0.021739130434782608\n",
      "note_off channel=0 note=61 velocity=64 time=0\n",
      "note_off channel=0 note=46 velocity=64 time=0.010869565217391304\n",
      "note_on channel=0 note=61 velocity=31 time=0\n",
      "note_on channel=0 note=77 velocity=45 time=0\n",
      "note_on channel=0 note=45 velocity=31 time=0.03260869565217391\n",
      "note_off channel=0 note=54 velocity=64 time=0\n",
      "note_off channel=0 note=45 velocity=64 time=0.021739130434782608\n",
      "note_on channel=0 note=54 velocity=34 time=0\n",
      "note_off channel=0 note=61 velocity=64 time=0\n",
      "note_on channel=0 note=61 velocity=24 time=0.010869565217391304\n",
      "note_on channel=0 note=32 velocity=38 time=0.010869565217391304\n",
      "note_on channel=0 note=53 velocity=41 time=0\n",
      "note_off channel=0 note=54 velocity=64 time=0\n",
      "note_on channel=0 note=46 velocity=35 time=0.021739130434782608\n",
      "note_off channel=0 note=53 velocity=64 time=0\n",
      "note_on channel=0 note=54 velocity=43 time=0\n",
      "note_off channel=0 note=32 velocity=64 time=0.021739130434782608\n",
      "note_on channel=0 note=45 velocity=37 time=0\n",
      "note_off channel=0 note=46 velocity=64 time=0\n",
      "note_off channel=0 note=61 velocity=64 time=0\n",
      "note_off channel=0 note=45 velocity=64 time=0.021739130434782608\n",
      "note_on channel=0 note=61 velocity=22 time=0\n",
      "note_off channel=0 note=77 velocity=64 time=0.03260869565217391\n",
      "note_on channel=0 note=33 velocity=27 time=0.010869565217391304\n",
      "note_off channel=0 note=61 velocity=64 time=0.010869565217391304\n",
      "note_on channel=0 note=61 velocity=26 time=0.010869565217391304\n",
      "note_off channel=0 note=33 velocity=64 time=0.021739130434782608\n",
      "note_on channel=0 note=43 velocity=41 time=0.021739130434782608\n",
      "note_off channel=0 note=54 velocity=64 time=0\n",
      "note_on channel=0 note=54 velocity=28 time=0.010869565217391304\n",
      "note_off channel=0 note=61 velocity=64 time=0\n",
      "note_off channel=0 note=43 velocity=64 time=0.010869565217391304\n",
      "note_off channel=0 note=73 velocity=64 time=0.07608695652173914\n",
      "note_off channel=0 note=54 velocity=64 time=0.021739130434782608\n",
      "note_on channel=0 note=54 velocity=32 time=0.010869565217391304\n",
      "note_on channel=0 note=77 velocity=15 time=0\n",
      "note_on channel=0 note=73 velocity=22 time=0.010869565217391304\n",
      "note_off channel=0 note=54 velocity=64 time=0.05434782608695652\n",
      "note_off channel=0 note=77 velocity=64 time=0\n",
      "note_on channel=0 note=54 velocity=27 time=0.03260869565217391\n",
      "note_on channel=0 note=45 velocity=34 time=0.021739130434782608\n"
     ]
    },
    {
     "name": "stdout",
     "output_type": "stream",
     "text": [
      "midi/1-Calming/ES_A Presence Felt - Gavin Luke.mp3.mid\n",
      "<meta message set_tempo tempo=500000 time=0>\n",
      "program_change channel=0 program=0 time=0\n",
      "note_on channel=0 note=76 velocity=14 time=0\n",
      "note_on channel=0 note=57 velocity=50 time=0.010869565217391304\n",
      "note_off channel=0 note=76 velocity=64 time=0.2934782608695652\n",
      "note_on channel=0 note=72 velocity=24 time=0.08695652173913043\n",
      "note_on channel=0 note=60 velocity=42 time=0.021739130434782608\n",
      "note_off channel=0 note=57 velocity=64 time=0.021739130434782608\n",
      "note_off channel=0 note=60 velocity=64 time=0.021739130434782608\n",
      "note_on channel=0 note=57 velocity=38 time=0.010869565217391304\n",
      "note_off channel=0 note=57 velocity=64 time=0.10869565217391304\n",
      "note_on channel=0 note=57 velocity=33 time=0.010869565217391304\n",
      "note_off channel=0 note=57 velocity=64 time=0.10869565217391304\n",
      "note_on channel=0 note=57 velocity=29 time=0.010869565217391304\n",
      "note_on channel=0 note=60 velocity=29 time=0.06521739130434782\n",
      "note_off channel=0 note=57 velocity=64 time=0.010869565217391304\n",
      "note_on channel=0 note=64 velocity=35 time=0.021739130434782608\n",
      "note_off channel=0 note=60 velocity=64 time=0.010869565217391304\n",
      "note_on channel=0 note=57 velocity=25 time=0.010869565217391304\n",
      "note_off channel=0 note=57 velocity=64 time=0.03260869565217391\n",
      "note_on channel=0 note=57 velocity=20 time=0.010869565217391304\n",
      "note_off channel=0 note=57 velocity=64 time=0.06521739130434782\n",
      "note_on channel=0 note=57 velocity=23 time=0.010869565217391304\n",
      "note_off channel=0 note=57 velocity=64 time=0.05434782608695652\n",
      "note_on channel=0 note=57 velocity=18 time=0.043478260869565216\n",
      "note_off channel=0 note=57 velocity=64 time=0.05434782608695652\n",
      "note_on channel=0 note=60 velocity=38 time=0.05434782608695652\n",
      "note_off channel=0 note=72 velocity=64 time=0.021739130434782608\n",
      "note_off channel=0 note=60 velocity=64 time=0.19565217391304346\n",
      "note_on channel=0 note=60 velocity=16 time=0.03260869565217391\n",
      "note_off channel=0 note=60 velocity=64 time=0.08695652173913043\n",
      "note_on channel=0 note=57 velocity=17 time=0.07608695652173914\n",
      "note_on channel=0 note=63 velocity=37 time=0\n",
      "note_off channel=0 note=64 velocity=64 time=0\n",
      "note_on channel=0 note=76 velocity=28 time=0.021739130434782608\n",
      "note_off channel=0 note=57 velocity=64 time=0.010869565217391304\n",
      "note_on channel=0 note=60 velocity=15 time=0\n",
      "note_off channel=0 note=63 velocity=64 time=0\n",
      "note_on channel=0 note=64 velocity=39 time=0\n",
      "note_on channel=0 note=47 velocity=15 time=0.021739130434782608\n",
      "note_off channel=0 note=60 velocity=64 time=0.03260869565217391\n",
      "note_off channel=0 note=47 velocity=64 time=0.010869565217391304\n",
      "note_off channel=0 note=76 velocity=64 time=0.19565217391304346\n",
      "note_on channel=0 note=46 velocity=13 time=0.08695652173913043\n",
      "note_on channel=0 note=72 velocity=37 time=0\n",
      "note_on channel=0 note=60 velocity=46 time=0.010869565217391304\n",
      "note_off channel=0 note=46 velocity=64 time=0.021739130434782608\n",
      "note_on channel=0 note=47 velocity=11 time=0.021739130434782608\n",
      "note_off channel=0 note=47 velocity=64 time=0.043478260869565216\n",
      "note_off channel=0 note=64 velocity=64 time=0.32608695652173914\n",
      "note_on channel=0 note=67 velocity=46 time=0\n",
      "note_on channel=0 note=55 velocity=40 time=0.010869565217391304\n",
      "note_on channel=0 note=47 velocity=30 time=0.010869565217391304\n",
      "note_on channel=0 note=74 velocity=17 time=0\n",
      "note_off channel=0 note=47 velocity=64 time=0.021739130434782608\n",
      "note_off channel=0 note=60 velocity=64 time=0\n",
      "note_off channel=0 note=72 velocity=64 time=0.021739130434782608\n",
      "note_off channel=0 note=74 velocity=64 time=0.13043478260869565\n",
      "note_on channel=0 note=72 velocity=45 time=0.14130434782608695\n",
      "note_on channel=0 note=60 velocity=53 time=0.010869565217391304\n",
      "note_on channel=0 note=64 velocity=11 time=0.07608695652173914\n",
      "note_off channel=0 note=64 velocity=64 time=0.16304347826086957\n",
      "note_on channel=0 note=64 velocity=48 time=0.14130434782608695\n",
      "note_on channel=0 note=83 velocity=16 time=0.010869565217391304\n",
      "note_off channel=0 note=55 velocity=64 time=0.010869565217391304\n",
      "note_off channel=0 note=67 velocity=64 time=0.010869565217391304\n",
      "note_on channel=0 note=55 velocity=14 time=0.010869565217391304\n",
      "note_on channel=0 note=47 velocity=12 time=0.043478260869565216\n",
      "note_off channel=0 note=55 velocity=64 time=0.010869565217391304\n",
      "note_off channel=0 note=47 velocity=64 time=0.043478260869565216\n",
      "note_on channel=0 note=55 velocity=33 time=0.043478260869565216\n",
      "note_off channel=0 note=83 velocity=64 time=0.03260869565217391\n",
      "note_off channel=0 note=60 velocity=64 time=0.14130434782608695\n",
      "note_on channel=0 note=60 velocity=45 time=0.010869565217391304\n",
      "note_off channel=0 note=55 velocity=64 time=0.010869565217391304\n",
      "note_on channel=0 note=55 velocity=14 time=0.010869565217391304\n",
      "note_on channel=0 note=47 velocity=17 time=0.010869565217391304\n",
      "note_off channel=0 note=55 velocity=64 time=0.021739130434782608\n",
      "note_on channel=0 note=55 velocity=17 time=0.010869565217391304\n",
      "note_off channel=0 note=47 velocity=64 time=0.010869565217391304\n",
      "note_off channel=0 note=55 velocity=64 time=0.043478260869565216\n",
      "note_off channel=0 note=60 velocity=64 time=0.09782608695652173\n",
      "note_on channel=0 note=60 velocity=27 time=0.010869565217391304\n",
      "note_off channel=0 note=60 velocity=64 time=0.15217391304347827\n",
      "note_on channel=0 note=55 velocity=21 time=0.010869565217391304\n",
      "note_on channel=0 note=60 velocity=22 time=0.010869565217391304\n",
      "note_off channel=0 note=55 velocity=64 time=0.03260869565217391\n",
      "note_on channel=0 note=55 velocity=12 time=0.010869565217391304\n",
      "note_off channel=0 note=55 velocity=64 time=0.06521739130434782\n",
      "note_on channel=0 note=55 velocity=12 time=0.021739130434782608\n",
      "note_off channel=0 note=55 velocity=64 time=0.10869565217391304\n",
      "note_on channel=0 note=59 velocity=34 time=0.09782608695652173\n",
      "note_off channel=0 note=60 velocity=64 time=0\n",
      "note_off channel=0 note=59 velocity=64 time=0.021739130434782608\n",
      "note_on channel=0 note=60 velocity=47 time=0\n",
      "note_on channel=0 note=55 velocity=16 time=0.06521739130434782\n",
      "note_off channel=0 note=55 velocity=64 time=0.10869565217391304\n",
      "note_on channel=0 note=55 velocity=25 time=0.010869565217391304\n",
      "note_off channel=0 note=64 velocity=64 time=0.17391304347826086\n",
      "note_off channel=0 note=55 velocity=64 time=0.010869565217391304\n",
      "note_on channel=0 note=56 velocity=34 time=0\n",
      "midi/1-Calming/ES_Awash - Gavin Luke.mp3.mid\n",
      "<meta message set_tempo tempo=500000 time=0>\n",
      "program_change channel=0 program=0 time=0\n",
      "note_on channel=0 note=59 velocity=50 time=0\n",
      "note_on channel=0 note=47 velocity=34 time=6.293478260869565\n",
      "note_off channel=0 note=59 velocity=64 time=0.22826086956521738\n",
      "note_on channel=0 note=71 velocity=28 time=0.021739130434782608\n",
      "note_on channel=0 note=59 velocity=38 time=0.11956521739130435\n",
      "note_off channel=0 note=71 velocity=64 time=0\n",
      "note_on channel=0 note=78 velocity=9 time=0.08695652173913043\n",
      "note_off channel=0 note=78 velocity=64 time=0.043478260869565216\n",
      "note_on channel=0 note=78 velocity=11 time=0.13043478260869565\n",
      "note_on channel=0 note=54 velocity=22 time=0.043478260869565216\n",
      "note_off channel=0 note=78 velocity=64 time=0\n",
      "note_on channel=0 note=78 velocity=15 time=0.11956521739130435\n",
      "note_on channel=0 note=63 velocity=55 time=0.05434782608695652\n",
      "note_off channel=0 note=78 velocity=64 time=0\n",
      "note_on channel=0 note=78 velocity=26 time=0.021739130434782608\n",
      "note_off channel=0 note=59 velocity=64 time=0.20652173913043478\n",
      "note_on channel=0 note=59 velocity=36 time=0.03260869565217391\n",
      "note_off channel=0 note=78 velocity=64 time=0.06521739130434782\n",
      "note_on channel=0 note=66 velocity=26 time=0.010869565217391304\n",
      "note_on channel=0 note=71 velocity=41 time=0\n",
      "note_on channel=0 note=78 velocity=47 time=0.043478260869565216\n",
      "note_on channel=0 note=97 velocity=13 time=0.13043478260869565\n",
      "note_off channel=0 note=71 velocity=64 time=0.07608695652173914\n",
      "note_on channel=0 note=71 velocity=36 time=0.010869565217391304\n",
      "note_off channel=0 note=54 velocity=64 time=0.010869565217391304\n",
      "note_off channel=0 note=66 velocity=64 time=0.03260869565217391\n",
      "note_off channel=0 note=97 velocity=64 time=0\n",
      "note_off channel=0 note=47 velocity=64 time=0.08695652173913043\n",
      "note_on channel=0 note=54 velocity=51 time=0.021739130434782608\n",
      "note_on channel=0 note=97 velocity=15 time=0.03260869565217391\n",
      "note_on channel=0 note=47 velocity=10 time=0.06521739130434782\n",
      "note_off channel=0 note=71 velocity=64 time=0\n",
      "note_off channel=0 note=97 velocity=64 time=0.010869565217391304\n",
      "note_on channel=0 note=71 velocity=52 time=0.010869565217391304\n",
      "note_on channel=0 note=97 velocity=21 time=0.07608695652173914\n",
      "note_off channel=0 note=47 velocity=64 time=0.03260869565217391\n",
      "note_on channel=0 note=99 velocity=19 time=0.043478260869565216\n",
      "note_off channel=0 note=71 velocity=64 time=0.07608695652173914\n",
      "note_on channel=0 note=47 velocity=44 time=0.010869565217391304\n",
      "note_off channel=0 note=99 velocity=64 time=0\n",
      "note_on channel=0 note=72 velocity=35 time=0.010869565217391304\n",
      "note_on channel=0 note=71 velocity=46 time=0.021739130434782608\n",
      "note_off channel=0 note=72 velocity=64 time=0\n",
      "note_off channel=0 note=59 velocity=64 time=0.010869565217391304\n",
      "note_off channel=0 note=71 velocity=64 time=0.021739130434782608\n",
      "note_on channel=0 note=71 velocity=62 time=0.010869565217391304\n",
      "note_off channel=0 note=97 velocity=64 time=0.09782608695652173\n",
      "note_on channel=0 note=87 velocity=17 time=0.043478260869565216\n",
      "note_on channel=0 note=99 velocity=18 time=0\n",
      "note_on channel=0 note=97 velocity=19 time=0.03260869565217391\n",
      "note_off channel=0 note=99 velocity=64 time=0\n",
      "note_off channel=0 note=87 velocity=64 time=0.021739130434782608\n",
      "note_on channel=0 note=87 velocity=15 time=0.021739130434782608\n",
      "note_off channel=0 note=71 velocity=64 time=0.010869565217391304\n",
      "note_on channel=0 note=83 velocity=29 time=0.010869565217391304\n",
      "note_on channel=0 note=71 velocity=51 time=0.010869565217391304\n",
      "note_off channel=0 note=97 velocity=64 time=0.05434782608695652\n",
      "note_off channel=0 note=87 velocity=64 time=0.010869565217391304\n",
      "note_off channel=0 note=83 velocity=64 time=0.010869565217391304\n",
      "note_off channel=0 note=71 velocity=64 time=0.010869565217391304\n",
      "note_on channel=0 note=71 velocity=48 time=0.010869565217391304\n",
      "note_on channel=0 note=87 velocity=29 time=0\n",
      "note_off channel=0 note=78 velocity=64 time=0.010869565217391304\n",
      "note_on channel=0 note=97 velocity=22 time=0\n",
      "note_on channel=0 note=78 velocity=44 time=0.010869565217391304\n",
      "note_off channel=0 note=71 velocity=64 time=0.010869565217391304\n",
      "note_on channel=0 note=71 velocity=54 time=0.010869565217391304\n",
      "note_off channel=0 note=47 velocity=64 time=0.06521739130434782\n",
      "note_off channel=0 note=71 velocity=64 time=0.03260869565217391\n",
      "note_on channel=0 note=72 velocity=47 time=0\n",
      "note_on channel=0 note=83 velocity=26 time=0.010869565217391304\n",
      "note_off channel=0 note=78 velocity=64 time=0.010869565217391304\n",
      "note_on channel=0 note=47 velocity=34 time=0.010869565217391304\n",
      "note_on channel=0 note=78 velocity=51 time=0\n",
      "note_on channel=0 note=71 velocity=57 time=0.021739130434782608\n",
      "note_off channel=0 note=72 velocity=64 time=0\n",
      "note_off channel=0 note=87 velocity=64 time=0.010869565217391304\n",
      "note_on channel=0 note=99 velocity=23 time=0\n",
      "note_off channel=0 note=83 velocity=64 time=0.03260869565217391\n",
      "note_on channel=0 note=72 velocity=35 time=0.06521739130434782\n",
      "note_off channel=0 note=71 velocity=64 time=0.010869565217391304\n",
      "note_on channel=0 note=83 velocity=30 time=0\n",
      "note_off channel=0 note=99 velocity=64 time=0\n",
      "note_on channel=0 note=71 velocity=50 time=0.010869565217391304\n",
      "note_off channel=0 note=72 velocity=64 time=0\n",
      "note_off channel=0 note=97 velocity=64 time=0.06521739130434782\n",
      "note_on channel=0 note=99 velocity=21 time=0\n",
      "note_on channel=0 note=97 velocity=9 time=0.043478260869565216\n",
      "note_off channel=0 note=71 velocity=64 time=0.010869565217391304\n",
      "note_on channel=0 note=72 velocity=38 time=0\n",
      "note_on channel=0 note=71 velocity=59 time=0.021739130434782608\n",
      "note_off channel=0 note=72 velocity=64 time=0\n",
      "note_off channel=0 note=97 velocity=64 time=0\n",
      "note_off channel=0 note=83 velocity=64 time=0.010869565217391304\n",
      "note_on channel=0 note=97 velocity=24 time=0.043478260869565216\n",
      "note_on channel=0 note=87 velocity=37 time=0.043478260869565216\n",
      "note_off channel=0 note=97 velocity=64 time=0.043478260869565216\n",
      "note_off channel=0 note=99 velocity=64 time=0.06521739130434782\n",
      "note_off channel=0 note=71 velocity=64 time=0.010869565217391304\n"
     ]
    },
    {
     "name": "stdout",
     "output_type": "stream",
     "text": [
      "midi/1-Calming/ES_A Whisper In The Dark - Gavin Luke.mp3.mid\n",
      "<meta message set_tempo tempo=500000 time=0>\n",
      "program_change channel=0 program=0 time=0\n",
      "note_on channel=0 note=63 velocity=29 time=0\n",
      "note_on channel=0 note=68 velocity=38 time=0\n",
      "note_on channel=0 note=49 velocity=66 time=0.010869565217391304\n",
      "note_off channel=0 note=49 velocity=64 time=0.010869565217391304\n",
      "note_on channel=0 note=50 velocity=82 time=0\n",
      "note_off channel=0 note=68 velocity=64 time=0\n",
      "note_on channel=0 note=69 velocity=39 time=0\n",
      "note_on channel=0 note=74 velocity=19 time=0\n",
      "note_off channel=0 note=63 velocity=64 time=0.010869565217391304\n",
      "note_on channel=0 note=78 velocity=14 time=0.010869565217391304\n",
      "note_off channel=0 note=74 velocity=64 time=0.010869565217391304\n",
      "note_on channel=0 note=66 velocity=38 time=0.2608695652173913\n",
      "note_off channel=0 note=69 velocity=64 time=0.010869565217391304\n",
      "note_off channel=0 note=66 velocity=64 time=0.021739130434782608\n",
      "note_on channel=0 note=69 velocity=32 time=0.010869565217391304\n",
      "note_off channel=0 note=78 velocity=64 time=0.13043478260869565\n",
      "note_off channel=0 note=50 velocity=64 time=0.07608695652173914\n",
      "note_on channel=0 note=51 velocity=45 time=0\n",
      "note_on channel=0 note=50 velocity=62 time=0.05434782608695652\n",
      "note_off channel=0 note=51 velocity=64 time=0\n",
      "note_on channel=0 note=58 velocity=43 time=0.08695652173913043\n",
      "note_off channel=0 note=69 velocity=64 time=0\n",
      "note_on channel=0 note=69 velocity=37 time=0.010869565217391304\n",
      "note_on channel=0 note=57 velocity=42 time=0.021739130434782608\n",
      "note_off channel=0 note=58 velocity=64 time=0\n",
      "note_on channel=0 note=56 velocity=30 time=0.021739130434782608\n",
      "note_off channel=0 note=57 velocity=64 time=0\n",
      "note_off channel=0 note=56 velocity=64 time=0.05434782608695652\n",
      "note_on channel=0 note=57 velocity=48 time=0\n",
      "note_off channel=0 note=69 velocity=64 time=0.15217391304347827\n",
      "note_on channel=0 note=67 velocity=74 time=0.05434782608695652\n",
      "note_off channel=0 note=50 velocity=64 time=0.021739130434782608\n",
      "note_off channel=0 note=57 velocity=64 time=0.010869565217391304\n",
      "note_on channel=0 note=56 velocity=57 time=0.03260869565217391\n",
      "note_off channel=0 note=56 velocity=64 time=0.021739130434782608\n",
      "note_on channel=0 note=50 velocity=31 time=0.010869565217391304\n",
      "note_on channel=0 note=57 velocity=54 time=0.010869565217391304\n",
      "note_on channel=0 note=49 velocity=34 time=0.03260869565217391\n",
      "note_off channel=0 note=50 velocity=64 time=0\n",
      "note_off channel=0 note=57 velocity=64 time=0.010869565217391304\n",
      "note_on channel=0 note=57 velocity=48 time=0.021739130434782608\n",
      "note_off channel=0 note=49 velocity=64 time=0.010869565217391304\n",
      "note_on channel=0 note=50 velocity=53 time=0\n",
      "note_on channel=0 note=81 velocity=14 time=0\n",
      "note_off channel=0 note=57 velocity=64 time=0.06521739130434782\n",
      "note_on channel=0 note=56 velocity=49 time=0.03260869565217391\n",
      "note_off channel=0 note=56 velocity=64 time=0.021739130434782608\n",
      "note_on channel=0 note=56 velocity=52 time=0.021739130434782608\n",
      "note_off channel=0 note=56 velocity=64 time=0.021739130434782608\n",
      "note_on channel=0 note=56 velocity=47 time=0.021739130434782608\n",
      "note_on channel=0 note=76 velocity=37 time=0.010869565217391304\n",
      "note_off channel=0 note=56 velocity=64 time=0.010869565217391304\n",
      "note_on channel=0 note=83 velocity=13 time=0.021739130434782608\n",
      "note_off channel=0 note=50 velocity=64 time=0.010869565217391304\n",
      "note_on channel=0 note=64 velocity=49 time=0.010869565217391304\n",
      "note_on channel=0 note=56 velocity=45 time=0.010869565217391304\n",
      "note_on channel=0 note=63 velocity=51 time=0.010869565217391304\n",
      "note_off channel=0 note=64 velocity=64 time=0\n",
      "note_off channel=0 note=56 velocity=64 time=0.010869565217391304\n",
      "note_off channel=0 note=83 velocity=64 time=0\n",
      "note_off channel=0 note=63 velocity=64 time=0.010869565217391304\n",
      "note_on channel=0 note=64 velocity=55 time=0\n",
      "note_off channel=0 note=81 velocity=64 time=0\n",
      "note_on channel=0 note=56 velocity=44 time=0.010869565217391304\n",
      "note_off channel=0 note=56 velocity=64 time=0.021739130434782608\n",
      "note_on channel=0 note=56 velocity=42 time=0.021739130434782608\n",
      "note_on channel=0 note=55 velocity=46 time=0.021739130434782608\n",
      "note_off channel=0 note=56 velocity=64 time=0\n",
      "note_off channel=0 note=55 velocity=64 time=0.16304347826086957\n",
      "note_on channel=0 note=55 velocity=34 time=0.010869565217391304\n",
      "note_on channel=0 note=50 velocity=40 time=0.043478260869565216\n",
      "note_off channel=0 note=67 velocity=64 time=0\n",
      "note_off channel=0 note=55 velocity=64 time=0.03260869565217391\n",
      "note_on channel=0 note=67 velocity=31 time=0.06521739130434782\n",
      "note_off channel=0 note=64 velocity=64 time=0.07608695652173914\n",
      "note_on channel=0 note=64 velocity=29 time=0.03260869565217391\n",
      "note_on channel=0 note=55 velocity=29 time=0.021739130434782608\n",
      "note_off channel=0 note=55 velocity=64 time=0.021739130434782608\n",
      "note_off channel=0 note=64 velocity=64 time=0.03260869565217391\n",
      "note_on channel=0 note=69 velocity=17 time=0.021739130434782608\n",
      "note_off channel=0 note=69 velocity=64 time=0.03260869565217391\n",
      "note_on channel=0 note=69 velocity=18 time=0.010869565217391304\n",
      "note_on channel=0 note=64 velocity=37 time=0.03260869565217391\n",
      "note_on channel=0 note=74 velocity=15 time=0.043478260869565216\n",
      "note_on channel=0 note=56 velocity=29 time=0.07608695652173914\n",
      "note_off channel=0 note=56 velocity=64 time=0.021739130434782608\n",
      "note_off channel=0 note=69 velocity=64 time=0\n",
      "note_off channel=0 note=50 velocity=64 time=0.021739130434782608\n",
      "note_on channel=0 note=50 velocity=35 time=0.03260869565217391\n",
      "note_on channel=0 note=56 velocity=29 time=0.010869565217391304\n",
      "note_off channel=0 note=56 velocity=64 time=0.021739130434782608\n",
      "note_off channel=0 note=74 velocity=64 time=0.03260869565217391\n",
      "note_off channel=0 note=50 velocity=64 time=0.05434782608695652\n",
      "note_on channel=0 note=50 velocity=37 time=0.021739130434782608\n",
      "note_on channel=0 note=56 velocity=30 time=0.043478260869565216\n",
      "note_off channel=0 note=56 velocity=64 time=0.021739130434782608\n",
      "note_on channel=0 note=56 velocity=31 time=0.021739130434782608\n",
      "note_on channel=0 note=74 velocity=10 time=0.010869565217391304\n",
      "note_off channel=0 note=56 velocity=64 time=0.010869565217391304\n",
      "midi/1-Calming/ES_Onthou - Ever So Blue.mp3.mid\n",
      "<meta message set_tempo tempo=500000 time=0>\n",
      "program_change channel=0 program=0 time=0\n",
      "note_on channel=0 note=60 velocity=34 time=0\n",
      "note_on channel=0 note=72 velocity=37 time=0\n",
      "note_on channel=0 note=43 velocity=35 time=0.010869565217391304\n",
      "note_off channel=0 note=43 velocity=64 time=0.03260869565217391\n",
      "note_on channel=0 note=43 velocity=29 time=0.03260869565217391\n",
      "note_off channel=0 note=43 velocity=64 time=0.021739130434782608\n",
      "note_on channel=0 note=43 velocity=20 time=0.11956521739130435\n",
      "note_on channel=0 note=67 velocity=42 time=0.010869565217391304\n",
      "note_off channel=0 note=43 velocity=64 time=0.021739130434782608\n",
      "note_on channel=0 note=43 velocity=30 time=0.14130434782608695\n",
      "note_on channel=0 note=64 velocity=38 time=0\n",
      "note_off channel=0 note=72 velocity=64 time=0\n",
      "note_off channel=0 note=60 velocity=64 time=0.010869565217391304\n",
      "note_off channel=0 note=67 velocity=64 time=0\n",
      "note_on channel=0 note=72 velocity=72 time=0\n",
      "note_off channel=0 note=43 velocity=64 time=0.010869565217391304\n",
      "note_off channel=0 note=64 velocity=64 time=0\n",
      "note_on channel=0 note=55 velocity=36 time=0.010869565217391304\n",
      "note_on channel=0 note=60 velocity=38 time=0.010869565217391304\n",
      "note_on channel=0 note=45 velocity=34 time=0.010869565217391304\n",
      "note_off channel=0 note=55 velocity=64 time=0.010869565217391304\n",
      "note_off channel=0 note=45 velocity=64 time=0.021739130434782608\n",
      "note_on channel=0 note=74 velocity=63 time=0.11956521739130435\n",
      "note_on channel=0 note=50 velocity=29 time=0.010869565217391304\n",
      "note_off channel=0 note=60 velocity=64 time=0\n",
      "note_on channel=0 note=62 velocity=61 time=0.010869565217391304\n",
      "note_on channel=0 note=81 velocity=14 time=0\n",
      "note_on channel=0 note=43 velocity=38 time=0.010869565217391304\n",
      "note_off channel=0 note=50 velocity=64 time=0\n",
      "note_off channel=0 note=43 velocity=64 time=0.03260869565217391\n",
      "note_on channel=0 note=39 velocity=37 time=0.03260869565217391\n",
      "note_off channel=0 note=39 velocity=64 time=0.043478260869565216\n",
      "note_on channel=0 note=43 velocity=44 time=0.07608695652173914\n",
      "note_on channel=0 note=56 velocity=20 time=0\n",
      "note_on channel=0 note=67 velocity=62 time=0\n",
      "note_off channel=0 note=43 velocity=64 time=0.043478260869565216\n",
      "note_off channel=0 note=56 velocity=64 time=0.010869565217391304\n",
      "note_off channel=0 note=74 velocity=64 time=0.11956521739130435\n",
      "note_off channel=0 note=81 velocity=64 time=0\n",
      "note_on channel=0 note=43 velocity=34 time=0.010869565217391304\n",
      "note_on channel=0 note=75 velocity=21 time=0\n",
      "note_off channel=0 note=43 velocity=64 time=0.021739130434782608\n",
      "note_on channel=0 note=43 velocity=40 time=0.010869565217391304\n",
      "note_off channel=0 note=75 velocity=64 time=0\n",
      "note_off channel=0 note=43 velocity=64 time=0.021739130434782608\n",
      "note_off channel=0 note=62 velocity=64 time=0\n",
      "note_on channel=0 note=62 velocity=33 time=0.010869565217391304\n",
      "note_on channel=0 note=55 velocity=16 time=0.010869565217391304\n",
      "note_on channel=0 note=44 velocity=23 time=0.03260869565217391\n",
      "note_off channel=0 note=55 velocity=64 time=0\n",
      "note_off channel=0 note=44 velocity=64 time=0.05434782608695652\n",
      "note_off channel=0 note=62 velocity=64 time=0.043478260869565216\n",
      "note_on channel=0 note=76 velocity=34 time=0\n",
      "note_on channel=0 note=64 velocity=82 time=0.010869565217391304\n",
      "note_on channel=0 note=83 velocity=15 time=0\n",
      "note_off channel=0 note=67 velocity=64 time=0.010869565217391304\n",
      "note_on channel=0 note=43 velocity=53 time=0.010869565217391304\n",
      "note_on channel=0 note=67 velocity=50 time=0\n",
      "note_on channel=0 note=56 velocity=20 time=0.010869565217391304\n",
      "note_off channel=0 note=43 velocity=64 time=0.021739130434782608\n",
      "note_on channel=0 note=44 velocity=46 time=0\n",
      "note_off channel=0 note=56 velocity=64 time=0.010869565217391304\n",
      "note_off channel=0 note=44 velocity=64 time=0.021739130434782608\n",
      "note_off channel=0 note=83 velocity=64 time=0.11956521739130435\n",
      "note_off channel=0 note=76 velocity=64 time=0.16304347826086957\n",
      "note_on channel=0 note=44 velocity=30 time=0.10869565217391304\n",
      "note_off channel=0 note=44 velocity=64 time=0.021739130434782608\n",
      "note_on channel=0 note=45 velocity=32 time=0.15217391304347827\n",
      "note_on channel=0 note=59 velocity=52 time=0\n",
      "note_on channel=0 note=78 velocity=16 time=0\n",
      "note_on channel=0 note=43 velocity=35 time=0.021739130434782608\n",
      "note_off channel=0 note=45 velocity=64 time=0\n",
      "note_on channel=0 note=71 velocity=58 time=0.010869565217391304\n",
      "note_off channel=0 note=72 velocity=64 time=0.010869565217391304\n",
      "note_off channel=0 note=43 velocity=64 time=0.010869565217391304\n",
      "note_off channel=0 note=71 velocity=64 time=0\n",
      "note_on channel=0 note=72 velocity=62 time=0\n",
      "note_on channel=0 note=71 velocity=60 time=0.010869565217391304\n",
      "note_off channel=0 note=72 velocity=64 time=0.010869565217391304\n",
      "note_off channel=0 note=67 velocity=64 time=0.021739130434782608\n",
      "note_on channel=0 note=67 velocity=46 time=0.10869565217391304\n",
      "note_off channel=0 note=78 velocity=64 time=0\n",
      "note_off channel=0 note=64 velocity=64 time=0.021739130434782608\n",
      "note_on channel=0 note=64 velocity=32 time=0.010869565217391304\n",
      "note_off channel=0 note=64 velocity=64 time=0.15217391304347827\n",
      "note_off channel=0 note=71 velocity=64 time=0.010869565217391304\n",
      "note_on channel=0 note=72 velocity=71 time=0\n",
      "note_on channel=0 note=64 velocity=39 time=0.021739130434782608\n",
      "note_on channel=0 note=45 velocity=24 time=0.021739130434782608\n",
      "note_off channel=0 note=45 velocity=64 time=0.03260869565217391\n",
      "note_off channel=0 note=59 velocity=64 time=0.10869565217391304\n",
      "note_on channel=0 note=43 velocity=34 time=0.010869565217391304\n",
      "note_on channel=0 note=50 velocity=29 time=0\n",
      "note_on channel=0 note=62 velocity=66 time=0\n",
      "note_off channel=0 note=64 velocity=64 time=0\n",
      "note_off channel=0 note=43 velocity=64 time=0.021739130434782608\n",
      "note_off channel=0 note=50 velocity=64 time=0\n",
      "note_on channel=0 note=44 velocity=43 time=0.010869565217391304\n",
      "note_off channel=0 note=44 velocity=64 time=0.021739130434782608\n"
     ]
    },
    {
     "name": "stdout",
     "output_type": "stream",
     "text": [
      "midi/1-Calming/ES_The Human Derivative - Amaranth Cove.mp3.mid\n",
      "<meta message set_tempo tempo=500000 time=0>\n",
      "program_change channel=0 program=0 time=0\n",
      "note_on channel=0 note=63 velocity=53 time=0\n",
      "note_on channel=0 note=70 velocity=17 time=0\n",
      "note_on channel=0 note=50 velocity=39 time=0.010869565217391304\n",
      "note_off channel=0 note=50 velocity=64 time=0.043478260869565216\n",
      "note_on channel=0 note=51 velocity=44 time=0\n",
      "note_off channel=0 note=70 velocity=64 time=0.33695652173913043\n",
      "note_off channel=0 note=51 velocity=64 time=0.3695652173913043\n",
      "note_on channel=0 note=58 velocity=59 time=0\n",
      "note_off channel=0 note=63 velocity=64 time=0\n",
      "note_on channel=0 note=51 velocity=30 time=0.010869565217391304\n",
      "note_off channel=0 note=51 velocity=64 time=0.021739130434782608\n",
      "note_on channel=0 note=51 velocity=27 time=0.03260869565217391\n",
      "note_off channel=0 note=51 velocity=64 time=0.20652173913043478\n",
      "note_on channel=0 note=51 velocity=23 time=0.010869565217391304\n",
      "note_off channel=0 note=51 velocity=64 time=0.4782608695652174\n",
      "note_on channel=0 note=54 velocity=55 time=0.010869565217391304\n",
      "note_on channel=0 note=65 velocity=41 time=0\n",
      "note_off channel=0 note=58 velocity=64 time=0.010869565217391304\n",
      "note_off channel=0 note=54 velocity=64 time=0.010869565217391304\n",
      "note_on channel=0 note=58 velocity=70 time=0\n",
      "note_on channel=0 note=53 velocity=57 time=0.021739130434782608\n",
      "note_off channel=0 note=65 velocity=64 time=0.5652173913043478\n",
      "note_off channel=0 note=53 velocity=64 time=0.18478260869565216\n",
      "note_on channel=0 note=53 velocity=43 time=0.021739130434782608\n",
      "note_off channel=0 note=53 velocity=64 time=0.3804347826086956\n",
      "note_on channel=0 note=53 velocity=36 time=0.010869565217391304\n",
      "note_off channel=0 note=53 velocity=64 time=0.3695652173913043\n",
      "note_on channel=0 note=54 velocity=66 time=0.010869565217391304\n",
      "note_on channel=0 note=67 velocity=25 time=0\n",
      "note_on channel=0 note=74 velocity=11 time=0.010869565217391304\n",
      "note_off channel=0 note=54 velocity=64 time=0.010869565217391304\n",
      "note_on channel=0 note=56 velocity=69 time=0\n",
      "note_off channel=0 note=58 velocity=64 time=0\n",
      "note_off channel=0 note=56 velocity=64 time=0.010869565217391304\n",
      "note_on channel=0 note=54 velocity=68 time=0.010869565217391304\n",
      "note_off channel=0 note=54 velocity=64 time=0.010869565217391304\n",
      "note_on channel=0 note=55 velocity=67 time=0\n",
      "note_off channel=0 note=55 velocity=64 time=0.021739130434782608\n",
      "note_on channel=0 note=56 velocity=70 time=0\n",
      "note_off channel=0 note=56 velocity=64 time=0.010869565217391304\n",
      "note_on channel=0 note=54 velocity=65 time=0.010869565217391304\n",
      "note_off channel=0 note=54 velocity=64 time=0.010869565217391304\n",
      "note_on channel=0 note=56 velocity=67 time=0\n",
      "note_on channel=0 note=55 velocity=68 time=0.010869565217391304\n",
      "note_off channel=0 note=56 velocity=64 time=0\n",
      "note_off channel=0 note=55 velocity=64 time=0.043478260869565216\n",
      "note_on channel=0 note=56 velocity=67 time=0\n",
      "note_on channel=0 note=55 velocity=67 time=0.010869565217391304\n",
      "note_off channel=0 note=56 velocity=64 time=0\n",
      "note_on channel=0 note=58 velocity=59 time=0.021739130434782608\n",
      "note_off channel=0 note=55 velocity=64 time=0.021739130434782608\n",
      "note_on channel=0 note=56 velocity=65 time=0\n",
      "note_off channel=0 note=58 velocity=64 time=0\n",
      "note_on channel=0 note=55 velocity=64 time=0.010869565217391304\n",
      "note_off channel=0 note=56 velocity=64 time=0\n",
      "note_on channel=0 note=58 velocity=77 time=0.021739130434782608\n",
      "note_off channel=0 note=74 velocity=64 time=0\n",
      "note_off channel=0 note=55 velocity=64 time=0.021739130434782608\n",
      "note_off channel=0 note=67 velocity=64 time=1.0217391304347825\n",
      "note_on channel=0 note=65 velocity=46 time=0.25\n",
      "note_on channel=0 note=53 velocity=59 time=0.021739130434782608\n",
      "note_off channel=0 note=53 velocity=64 time=0.11956521739130435\n",
      "note_on channel=0 note=53 velocity=53 time=0.010869565217391304\n",
      "note_off channel=0 note=65 velocity=64 time=0.25\n",
      "note_on channel=0 note=62 velocity=65 time=0.021739130434782608\n",
      "note_off channel=0 note=53 velocity=64 time=0.05434782608695652\n",
      "note_on channel=0 note=53 velocity=48 time=0.010869565217391304\n",
      "note_off channel=0 note=53 velocity=64 time=0.06521739130434782\n",
      "note_on channel=0 note=53 velocity=44 time=0.010869565217391304\n",
      "note_off channel=0 note=62 velocity=64 time=0.03260869565217391\n",
      "note_on channel=0 note=62 velocity=51 time=0.010869565217391304\n",
      "note_off channel=0 note=62 velocity=64 time=0.021739130434782608\n",
      "note_on channel=0 note=62 velocity=51 time=0.010869565217391304\n",
      "note_off channel=0 note=62 velocity=64 time=0.043478260869565216\n",
      "note_on channel=0 note=62 velocity=49 time=0.010869565217391304\n",
      "note_off channel=0 note=53 velocity=64 time=0.09782608695652173\n",
      "note_off channel=0 note=62 velocity=64 time=0.010869565217391304\n",
      "note_on channel=0 note=53 velocity=42 time=0.010869565217391304\n",
      "note_on channel=0 note=62 velocity=41 time=0.021739130434782608\n",
      "note_off channel=0 note=62 velocity=64 time=0.03260869565217391\n",
      "note_on channel=0 note=62 velocity=37 time=0.010869565217391304\n",
      "note_off channel=0 note=62 velocity=64 time=0.03260869565217391\n",
      "note_on channel=0 note=62 velocity=37 time=0.010869565217391304\n",
      "note_off channel=0 note=62 velocity=64 time=0.021739130434782608\n",
      "note_off channel=0 note=53 velocity=64 time=0.03260869565217391\n",
      "note_on channel=0 note=62 velocity=37 time=0\n",
      "note_on channel=0 note=53 velocity=40 time=0.010869565217391304\n",
      "note_off channel=0 note=62 velocity=64 time=0.010869565217391304\n",
      "note_on channel=0 note=62 velocity=32 time=0.07608695652173914\n",
      "note_off channel=0 note=62 velocity=64 time=0.03260869565217391\n",
      "note_on channel=0 note=62 velocity=32 time=0.021739130434782608\n",
      "note_off channel=0 note=53 velocity=64 time=0.05434782608695652\n",
      "note_off channel=0 note=62 velocity=64 time=0.010869565217391304\n",
      "note_off channel=0 note=58 velocity=64 time=0.010869565217391304\n",
      "note_on channel=0 note=61 velocity=68 time=0\n",
      "note_on channel=0 note=72 velocity=22 time=0\n",
      "note_on channel=0 note=60 velocity=79 time=0.010869565217391304\n",
      "note_off channel=0 note=61 velocity=64 time=0\n",
      "note_on channel=0 note=59 velocity=68 time=0.010869565217391304\n",
      "midi/1-Calming/ES_Happy Days Are Long Awaited - River Foxcroft.mp3.mid\n",
      "<meta message set_tempo tempo=500000 time=0>\n",
      "program_change channel=0 program=0 time=0\n",
      "note_on channel=0 note=54 velocity=35 time=0\n",
      "note_on channel=0 note=45 velocity=20 time=0.021739130434782608\n",
      "note_on channel=0 note=53 velocity=21 time=0\n",
      "note_off channel=0 note=54 velocity=64 time=0\n",
      "note_off channel=0 note=45 velocity=64 time=0.043478260869565216\n",
      "note_off channel=0 note=53 velocity=64 time=0\n",
      "note_on channel=0 note=69 velocity=30 time=0.32608695652173914\n",
      "note_on channel=0 note=54 velocity=38 time=0.010869565217391304\n",
      "note_on channel=0 note=88 velocity=17 time=0\n",
      "note_off channel=0 note=69 velocity=64 time=0.021739130434782608\n",
      "note_on channel=0 note=45 velocity=20 time=0.010869565217391304\n",
      "note_on channel=0 note=53 velocity=19 time=0\n",
      "note_off channel=0 note=54 velocity=64 time=0\n",
      "note_on channel=0 note=69 velocity=33 time=0.010869565217391304\n",
      "note_off channel=0 note=45 velocity=64 time=0.021739130434782608\n",
      "note_off channel=0 note=53 velocity=64 time=0\n",
      "note_off channel=0 note=88 velocity=64 time=0.17391304347826086\n",
      "note_on channel=0 note=56 velocity=34 time=0.09782608695652173\n",
      "note_off channel=0 note=69 velocity=64 time=0.021739130434782608\n",
      "note_on channel=0 note=88 velocity=30 time=0\n",
      "note_off channel=0 note=56 velocity=64 time=0.010869565217391304\n",
      "note_on channel=0 note=71 velocity=28 time=0\n",
      "note_on channel=0 note=62 velocity=36 time=0.010869565217391304\n",
      "note_on channel=0 note=69 velocity=38 time=0.010869565217391304\n",
      "note_on channel=0 note=57 velocity=51 time=0.010869565217391304\n",
      "note_off channel=0 note=71 velocity=64 time=0\n",
      "note_on channel=0 note=50 velocity=54 time=0.010869565217391304\n",
      "note_on channel=0 note=38 velocity=53 time=0.021739130434782608\n",
      "note_off channel=0 note=57 velocity=64 time=0.30434782608695654\n",
      "note_on channel=0 note=66 velocity=53 time=0.010869565217391304\n",
      "note_on channel=0 note=49 velocity=68 time=0.010869565217391304\n",
      "note_off channel=0 note=50 velocity=64 time=0\n",
      "note_off channel=0 note=69 velocity=64 time=0\n",
      "note_on channel=0 note=73 velocity=39 time=0\n",
      "note_off channel=0 note=49 velocity=64 time=0.010869565217391304\n",
      "note_on channel=0 note=54 velocity=100 time=0\n",
      "note_on channel=0 note=82 velocity=15 time=0\n",
      "note_off channel=0 note=38 velocity=64 time=0.021739130434782608\n",
      "note_on channel=0 note=38 velocity=56 time=0.03260869565217391\n",
      "note_off channel=0 note=62 velocity=64 time=0.08695652173913043\n",
      "note_on channel=0 note=81 velocity=23 time=0.010869565217391304\n",
      "note_off channel=0 note=82 velocity=64 time=0\n",
      "note_on channel=0 note=62 velocity=66 time=0.05434782608695652\n",
      "note_off channel=0 note=54 velocity=64 time=0.043478260869565216\n",
      "note_off channel=0 note=88 velocity=64 time=0\n",
      "note_on channel=0 note=57 velocity=52 time=0.03260869565217391\n",
      "note_off channel=0 note=81 velocity=64 time=0.03260869565217391\n",
      "note_on channel=0 note=88 velocity=22 time=0.03260869565217391\n",
      "note_on channel=0 note=70 velocity=18 time=0.010869565217391304\n",
      "note_on channel=0 note=76 velocity=55 time=0\n",
      "note_off channel=0 note=57 velocity=64 time=0.010869565217391304\n",
      "note_on channel=0 note=54 velocity=70 time=0.010869565217391304\n",
      "note_off channel=0 note=54 velocity=64 time=0.010869565217391304\n",
      "note_off channel=0 note=70 velocity=64 time=0\n",
      "note_on channel=0 note=57 velocity=55 time=0.010869565217391304\n",
      "note_on channel=0 note=69 velocity=63 time=0.010869565217391304\n",
      "note_off channel=0 note=57 velocity=64 time=0.021739130434782608\n",
      "note_on channel=0 note=54 velocity=48 time=0.043478260869565216\n",
      "note_off channel=0 note=54 velocity=64 time=0.021739130434782608\n",
      "note_on channel=0 note=57 velocity=69 time=0.06521739130434782\n",
      "note_on channel=0 note=65 velocity=19 time=0.08695652173913043\n",
      "note_off channel=0 note=66 velocity=64 time=0\n",
      "note_off channel=0 note=73 velocity=64 time=0.021739130434782608\n",
      "note_off channel=0 note=65 velocity=64 time=0.010869565217391304\n",
      "note_on channel=0 note=66 velocity=55 time=0\n",
      "note_on channel=0 note=85 velocity=20 time=0.010869565217391304\n",
      "note_on channel=0 note=78 velocity=61 time=0.010869565217391304\n",
      "note_off channel=0 note=85 velocity=64 time=0.05434782608695652\n",
      "note_on channel=0 note=85 velocity=30 time=0.010869565217391304\n",
      "note_off channel=0 note=88 velocity=64 time=0.021739130434782608\n",
      "note_off channel=0 note=57 velocity=64 time=0.11956521739130435\n",
      "note_on channel=0 note=57 velocity=61 time=0.010869565217391304\n",
      "note_off channel=0 note=66 velocity=64 time=0\n",
      "note_on channel=0 note=66 velocity=47 time=0.010869565217391304\n",
      "note_off channel=0 note=57 velocity=64 time=0.06521739130434782\n",
      "note_on channel=0 note=57 velocity=53 time=0.021739130434782608\n",
      "note_off channel=0 note=85 velocity=64 time=0\n",
      "note_on channel=0 note=85 velocity=22 time=0.010869565217391304\n",
      "note_on channel=0 note=54 velocity=52 time=0.010869565217391304\n",
      "note_off channel=0 note=57 velocity=64 time=0\n",
      "note_on channel=0 note=37 velocity=48 time=0.021739130434782608\n",
      "note_off channel=0 note=38 velocity=64 time=0\n",
      "note_off channel=0 note=54 velocity=64 time=0\n",
      "note_off channel=0 note=66 velocity=64 time=0.010869565217391304\n",
      "note_off channel=0 note=85 velocity=64 time=0.010869565217391304\n",
      "note_on channel=0 note=97 velocity=14 time=0.010869565217391304\n",
      "note_on channel=0 note=54 velocity=51 time=0.010869565217391304\n",
      "note_on channel=0 note=66 velocity=66 time=0\n",
      "note_on channel=0 note=85 velocity=29 time=0\n",
      "note_on channel=0 note=36 velocity=55 time=0.010869565217391304\n",
      "note_off channel=0 note=37 velocity=64 time=0\n",
      "note_off channel=0 note=54 velocity=64 time=0.010869565217391304\n",
      "note_off channel=0 note=62 velocity=64 time=0\n",
      "note_off channel=0 note=76 velocity=64 time=0\n",
      "note_on channel=0 note=62 velocity=61 time=0.010869565217391304\n",
      "note_off channel=0 note=36 velocity=64 time=0.010869565217391304\n",
      "note_on channel=0 note=37 velocity=58 time=0\n",
      "note_on channel=0 note=77 velocity=52 time=0\n",
      "note_on channel=0 note=84 velocity=27 time=0\n"
     ]
    },
    {
     "name": "stdout",
     "output_type": "stream",
     "text": [
      "midi/2-Sports/ES_Body Work - Mean Dabber.mp3.mid\n",
      "<meta message set_tempo tempo=500000 time=0>\n",
      "program_change channel=0 program=0 time=0\n",
      "note_on channel=0 note=46 velocity=93 time=0\n",
      "note_on channel=0 note=42 velocity=96 time=0.010869565217391304\n",
      "note_off channel=0 note=46 velocity=64 time=0\n",
      "note_on channel=0 note=38 velocity=98 time=0.010869565217391304\n",
      "note_off channel=0 note=42 velocity=64 time=0\n",
      "note_on channel=0 note=36 velocity=95 time=0.010869565217391304\n",
      "note_off channel=0 note=38 velocity=64 time=0\n",
      "note_on channel=0 note=34 velocity=94 time=0.010869565217391304\n",
      "note_off channel=0 note=36 velocity=64 time=0\n",
      "note_on channel=0 note=33 velocity=95 time=0.010869565217391304\n",
      "note_off channel=0 note=34 velocity=64 time=0\n",
      "note_on channel=0 note=32 velocity=94 time=0.010869565217391304\n",
      "note_off channel=0 note=33 velocity=64 time=0\n",
      "note_on channel=0 note=31 velocity=91 time=0.021739130434782608\n",
      "note_off channel=0 note=32 velocity=64 time=0\n",
      "note_on channel=0 note=30 velocity=90 time=0.021739130434782608\n",
      "note_off channel=0 note=31 velocity=64 time=0\n",
      "note_off channel=0 note=30 velocity=64 time=0.010869565217391304\n",
      "note_on channel=0 note=31 velocity=91 time=0\n",
      "note_on channel=0 note=30 velocity=87 time=0.021739130434782608\n",
      "note_off channel=0 note=31 velocity=64 time=0\n",
      "note_on channel=0 note=91 velocity=32 time=0.07608695652173914\n",
      "note_on channel=0 note=98 velocity=14 time=0.021739130434782608\n",
      "note_on channel=0 note=84 velocity=13 time=0.021739130434782608\n",
      "note_off channel=0 note=30 velocity=64 time=0.021739130434782608\n",
      "note_on channel=0 note=90 velocity=13 time=0\n",
      "note_off channel=0 note=84 velocity=64 time=0.010869565217391304\n",
      "note_off channel=0 note=98 velocity=64 time=0.021739130434782608\n",
      "note_off channel=0 note=90 velocity=64 time=0.043478260869565216\n",
      "note_off channel=0 note=91 velocity=64 time=0.021739130434782608\n",
      "note_on channel=0 note=86 velocity=38 time=0.06521739130434782\n",
      "note_on channel=0 note=91 velocity=30 time=0\n",
      "note_on channel=0 note=92 velocity=36 time=0\n",
      "note_on channel=0 note=66 velocity=39 time=0.010869565217391304\n",
      "note_on channel=0 note=75 velocity=38 time=0\n",
      "note_on channel=0 note=85 velocity=37 time=0\n",
      "note_on channel=0 note=88 velocity=38 time=0\n",
      "note_on channel=0 note=94 velocity=24 time=0\n",
      "note_on channel=0 note=95 velocity=29 time=0\n",
      "note_on channel=0 note=99 velocity=15 time=0\n",
      "note_on channel=0 note=50 velocity=81 time=0.010869565217391304\n",
      "note_on channel=0 note=76 velocity=34 time=0\n",
      "note_on channel=0 note=82 velocity=14 time=0\n",
      "note_on channel=0 note=46 velocity=90 time=0.010869565217391304\n",
      "note_off channel=0 note=50 velocity=64 time=0\n",
      "note_off channel=0 note=75 velocity=64 time=0\n",
      "note_on channel=0 note=84 velocity=15 time=0\n",
      "note_on channel=0 note=96 velocity=27 time=0\n",
      "note_on channel=0 note=42 velocity=93 time=0.010869565217391304\n",
      "note_off channel=0 note=46 velocity=64 time=0\n",
      "note_off channel=0 note=76 velocity=64 time=0\n",
      "note_off channel=0 note=85 velocity=64 time=0\n",
      "note_on channel=0 note=89 velocity=20 time=0\n",
      "note_on channel=0 note=38 velocity=95 time=0.010869565217391304\n",
      "note_off channel=0 note=42 velocity=64 time=0\n",
      "note_off channel=0 note=66 velocity=64 time=0\n",
      "note_off channel=0 note=82 velocity=64 time=0\n",
      "note_off channel=0 note=86 velocity=64 time=0\n",
      "note_off channel=0 note=88 velocity=64 time=0\n",
      "note_off channel=0 note=95 velocity=64 time=0\n",
      "note_on channel=0 note=36 velocity=93 time=0.010869565217391304\n",
      "note_off channel=0 note=38 velocity=64 time=0\n",
      "note_off channel=0 note=96 velocity=64 time=0\n",
      "note_on channel=0 note=34 velocity=91 time=0.010869565217391304\n",
      "note_off channel=0 note=36 velocity=64 time=0\n",
      "note_off channel=0 note=94 velocity=64 time=0\n",
      "note_on channel=0 note=33 velocity=92 time=0.010869565217391304\n",
      "note_off channel=0 note=34 velocity=64 time=0\n",
      "note_off channel=0 note=84 velocity=64 time=0\n",
      "note_off channel=0 note=89 velocity=64 time=0\n",
      "note_off channel=0 note=91 velocity=64 time=0\n",
      "note_off channel=0 note=92 velocity=64 time=0\n",
      "note_off channel=0 note=99 velocity=64 time=0\n",
      "note_on channel=0 note=32 velocity=92 time=0.010869565217391304\n",
      "note_off channel=0 note=33 velocity=64 time=0\n",
      "note_on channel=0 note=31 velocity=90 time=0.021739130434782608\n",
      "note_off channel=0 note=32 velocity=64 time=0\n",
      "note_on channel=0 note=30 velocity=87 time=0.05434782608695652\n",
      "note_off channel=0 note=31 velocity=64 time=0\n",
      "note_on channel=0 note=91 velocity=31 time=0.07608695652173914\n",
      "note_on channel=0 note=98 velocity=12 time=0.021739130434782608\n",
      "note_on channel=0 note=84 velocity=12 time=0.021739130434782608\n",
      "note_off channel=0 note=30 velocity=64 time=0.021739130434782608\n",
      "note_off channel=0 note=84 velocity=64 time=0.010869565217391304\n",
      "note_on channel=0 note=90 velocity=12 time=0\n",
      "note_off channel=0 note=98 velocity=64 time=0.021739130434782608\n",
      "note_on channel=0 note=36 velocity=16 time=0.021739130434782608\n",
      "note_off channel=0 note=90 velocity=64 time=0.021739130434782608\n",
      "note_off channel=0 note=36 velocity=64 time=0.010869565217391304\n",
      "note_off channel=0 note=91 velocity=64 time=0.010869565217391304\n",
      "note_on channel=0 note=74 velocity=44 time=0.06521739130434782\n",
      "note_on channel=0 note=79 velocity=33 time=0\n",
      "note_on channel=0 note=88 velocity=33 time=0\n",
      "note_on channel=0 note=89 velocity=30 time=0\n",
      "note_on channel=0 note=90 velocity=30 time=0\n",
      "note_on channel=0 note=93 velocity=26 time=0\n",
      "note_on channel=0 note=55 velocity=67 time=0.010869565217391304\n",
      "note_on channel=0 note=83 velocity=29 time=0\n",
      "note_on channel=0 note=50 velocity=87 time=0.010869565217391304\n",
      "midi/2-Sports/ES_Kermode - Tigerblood Jewel.mp3.mid\n",
      "<meta message set_tempo tempo=500000 time=0>\n",
      "program_change channel=0 program=0 time=0\n",
      "note_on channel=0 note=68 velocity=30 time=0\n",
      "note_on channel=0 note=71 velocity=21 time=0\n",
      "note_on channel=0 note=75 velocity=33 time=0\n",
      "note_on channel=0 note=88 velocity=30 time=0\n",
      "note_on channel=0 note=90 velocity=38 time=0\n",
      "note_on channel=0 note=91 velocity=58 time=0\n",
      "note_on channel=0 note=92 velocity=29 time=0\n",
      "note_on channel=0 note=79 velocity=45 time=0.010869565217391304\n",
      "note_on channel=0 note=80 velocity=37 time=0\n",
      "note_on channel=0 note=82 velocity=26 time=0\n",
      "note_on channel=0 note=78 velocity=49 time=0.010869565217391304\n",
      "note_on channel=0 note=85 velocity=12 time=0\n",
      "note_off channel=0 note=88 velocity=64 time=0\n",
      "note_on channel=0 note=89 velocity=27 time=0\n",
      "note_off channel=0 note=79 velocity=64 time=0.010869565217391304\n",
      "note_off channel=0 note=80 velocity=64 time=0\n",
      "note_on channel=0 note=86 velocity=24 time=0\n",
      "note_off channel=0 note=90 velocity=64 time=0\n",
      "note_off channel=0 note=92 velocity=64 time=0\n",
      "note_on channel=0 note=74 velocity=29 time=0.010869565217391304\n",
      "note_off channel=0 note=75 velocity=64 time=0\n",
      "note_off channel=0 note=78 velocity=64 time=0\n",
      "note_on channel=0 note=79 velocity=51 time=0\n",
      "note_off channel=0 note=85 velocity=64 time=0.010869565217391304\n",
      "note_off channel=0 note=68 velocity=64 time=0.010869565217391304\n",
      "note_off channel=0 note=71 velocity=64 time=0\n",
      "note_off channel=0 note=86 velocity=64 time=0\n",
      "note_off channel=0 note=74 velocity=64 time=0.010869565217391304\n",
      "note_off channel=0 note=82 velocity=64 time=0\n",
      "note_off channel=0 note=89 velocity=64 time=0\n",
      "note_off channel=0 note=91 velocity=64 time=0\n",
      "note_off channel=0 note=79 velocity=64 time=0.021739130434782608\n",
      "note_on channel=0 note=79 velocity=30 time=0.08695652173913043\n",
      "note_on channel=0 note=87 velocity=29 time=0\n",
      "note_on channel=0 note=91 velocity=58 time=0\n",
      "note_on channel=0 note=75 velocity=32 time=0.010869565217391304\n",
      "note_on channel=0 note=89 velocity=30 time=0\n",
      "note_on channel=0 note=92 velocity=31 time=0\n",
      "note_on channel=0 note=73 velocity=11 time=0.010869565217391304\n",
      "note_on channel=0 note=77 velocity=24 time=0\n",
      "note_on channel=0 note=85 velocity=21 time=0\n",
      "note_on channel=0 note=88 velocity=29 time=0\n",
      "note_off channel=0 note=79 velocity=64 time=0.010869565217391304\n",
      "note_on channel=0 note=83 velocity=22 time=0\n",
      "note_on channel=0 note=90 velocity=40 time=0\n",
      "note_on channel=0 note=79 velocity=54 time=0.010869565217391304\n",
      "note_on channel=0 note=81 velocity=39 time=0\n",
      "note_off channel=0 note=92 velocity=64 time=0\n",
      "note_on channel=0 note=68 velocity=29 time=0.010869565217391304\n",
      "note_on channel=0 note=72 velocity=20 time=0\n",
      "note_off channel=0 note=73 velocity=64 time=0\n",
      "note_off channel=0 note=85 velocity=64 time=0\n",
      "note_on channel=0 note=86 velocity=28 time=0\n",
      "note_off channel=0 note=88 velocity=64 time=0\n",
      "note_off channel=0 note=89 velocity=64 time=0.010869565217391304\n",
      "note_off channel=0 note=77 velocity=64 time=0.010869565217391304\n",
      "note_on channel=0 note=89 velocity=31 time=0\n",
      "note_on channel=0 note=92 velocity=25 time=0\n",
      "note_off channel=0 note=72 velocity=64 time=0.010869565217391304\n",
      "note_off channel=0 note=81 velocity=64 time=0\n",
      "note_on channel=0 note=82 velocity=26 time=0\n",
      "note_off channel=0 note=83 velocity=64 time=0\n",
      "note_off channel=0 note=75 velocity=64 time=0.010869565217391304\n",
      "note_off channel=0 note=86 velocity=64 time=0\n",
      "note_off channel=0 note=90 velocity=64 time=0\n",
      "note_off channel=0 note=68 velocity=64 time=0.010869565217391304\n",
      "note_on channel=0 note=70 velocity=29 time=0\n",
      "note_off channel=0 note=91 velocity=64 time=0.010869565217391304\n",
      "note_off channel=0 note=70 velocity=64 time=0.010869565217391304\n",
      "note_off channel=0 note=82 velocity=64 time=0\n",
      "note_off channel=0 note=87 velocity=64 time=0\n",
      "note_off channel=0 note=89 velocity=64 time=0\n",
      "note_off channel=0 note=92 velocity=64 time=0\n",
      "note_off channel=0 note=79 velocity=64 time=0.010869565217391304\n",
      "note_on channel=0 note=91 velocity=31 time=0.08695652173913043\n",
      "note_on channel=0 note=87 velocity=21 time=0.010869565217391304\n",
      "note_on channel=0 note=85 velocity=25 time=0.010869565217391304\n",
      "note_on channel=0 note=89 velocity=31 time=0\n",
      "note_on channel=0 note=90 velocity=40 time=0\n",
      "note_off channel=0 note=91 velocity=64 time=0\n",
      "note_on channel=0 note=78 velocity=38 time=0.010869565217391304\n",
      "note_on channel=0 note=80 velocity=36 time=0\n",
      "note_on channel=0 note=83 velocity=15 time=0\n",
      "note_on channel=0 note=84 velocity=14 time=0\n",
      "note_on channel=0 note=91 velocity=57 time=0\n",
      "note_on channel=0 note=86 velocity=24 time=0.010869565217391304\n",
      "note_off channel=0 note=78 velocity=64 time=0.010869565217391304\n",
      "note_on channel=0 note=79 velocity=59 time=0\n",
      "note_off channel=0 note=80 velocity=64 time=0\n",
      "note_on channel=0 note=81 velocity=36 time=0\n",
      "note_on channel=0 note=88 velocity=28 time=0\n",
      "note_on channel=0 note=75 velocity=23 time=0.010869565217391304\n",
      "note_off channel=0 note=83 velocity=64 time=0\n",
      "note_off channel=0 note=87 velocity=64 time=0\n",
      "note_off channel=0 note=89 velocity=64 time=0\n",
      "note_on channel=0 note=92 velocity=21 time=0\n",
      "note_off channel=0 note=81 velocity=64 time=0.010869565217391304\n",
      "note_off channel=0 note=86 velocity=64 time=0\n",
      "note_on channel=0 note=87 velocity=27 time=0\n"
     ]
    },
    {
     "name": "stdout",
     "output_type": "stream",
     "text": [
      "midi/2-Sports/ES_Unleash My Halo - Sum Wave.mp3.mid\n",
      "<meta message set_tempo tempo=500000 time=0>\n",
      "program_change channel=0 program=0 time=0\n",
      "note_on channel=0 note=42 velocity=76 time=0\n",
      "note_on channel=0 note=38 velocity=81 time=0.010869565217391304\n",
      "note_off channel=0 note=42 velocity=64 time=0\n",
      "note_on channel=0 note=36 velocity=81 time=0.010869565217391304\n",
      "note_off channel=0 note=38 velocity=64 time=0\n",
      "note_on channel=0 note=54 velocity=28 time=0\n",
      "note_on channel=0 note=35 velocity=83 time=0.010869565217391304\n",
      "note_off channel=0 note=36 velocity=64 time=0\n",
      "note_on channel=0 note=65 velocity=30 time=0\n",
      "note_off channel=0 note=65 velocity=64 time=0.043478260869565216\n",
      "note_off channel=0 note=54 velocity=64 time=0.03260869565217391\n",
      "note_on channel=0 note=72 velocity=14 time=0\n",
      "note_on channel=0 note=54 velocity=31 time=0.021739130434782608\n",
      "note_off channel=0 note=72 velocity=64 time=0.010869565217391304\n",
      "note_off channel=0 note=54 velocity=64 time=0.043478260869565216\n",
      "note_on channel=0 note=34 velocity=79 time=0.021739130434782608\n",
      "note_off channel=0 note=35 velocity=64 time=0\n",
      "note_on channel=0 note=53 velocity=27 time=0\n",
      "note_off channel=0 note=53 velocity=64 time=0.07608695652173914\n",
      "note_on channel=0 note=33 velocity=79 time=0.021739130434782608\n",
      "note_off channel=0 note=34 velocity=64 time=0\n",
      "note_on channel=0 note=53 velocity=31 time=0.010869565217391304\n",
      "note_on channel=0 note=32 velocity=65 time=0.07608695652173914\n",
      "note_off channel=0 note=33 velocity=64 time=0\n",
      "note_off channel=0 note=53 velocity=64 time=0\n",
      "note_on channel=0 note=30 velocity=66 time=0.010869565217391304\n",
      "note_off channel=0 note=32 velocity=64 time=0\n",
      "note_off channel=0 note=30 velocity=64 time=0.021739130434782608\n",
      "note_on channel=0 note=32 velocity=76 time=0\n",
      "note_on channel=0 note=52 velocity=24 time=0.010869565217391304\n",
      "note_off channel=0 note=32 velocity=64 time=0.010869565217391304\n",
      "note_on channel=0 note=33 velocity=78 time=0\n",
      "note_on channel=0 note=32 velocity=78 time=0.010869565217391304\n",
      "note_off channel=0 note=33 velocity=64 time=0\n",
      "note_off channel=0 note=52 velocity=64 time=0.03260869565217391\n",
      "note_on channel=0 note=31 velocity=72 time=0.010869565217391304\n",
      "note_off channel=0 note=32 velocity=64 time=0\n",
      "note_on channel=0 note=30 velocity=66 time=0.021739130434782608\n",
      "note_off channel=0 note=31 velocity=64 time=0\n",
      "note_off channel=0 note=30 velocity=64 time=0.021739130434782608\n",
      "note_on channel=0 note=30 velocity=70 time=0.010869565217391304\n",
      "note_off channel=0 note=30 velocity=64 time=0.010869565217391304\n",
      "note_on channel=0 note=31 velocity=80 time=0\n",
      "note_on channel=0 note=51 velocity=31 time=0.010869565217391304\n",
      "note_off channel=0 note=31 velocity=64 time=0.010869565217391304\n",
      "note_on channel=0 note=32 velocity=80 time=0\n",
      "note_off channel=0 note=51 velocity=64 time=0.010869565217391304\n",
      "note_on channel=0 note=31 velocity=72 time=0.010869565217391304\n",
      "note_off channel=0 note=32 velocity=64 time=0\n",
      "note_off channel=0 note=31 velocity=64 time=0.010869565217391304\n",
      "note_on channel=0 note=30 velocity=71 time=0.021739130434782608\n",
      "note_on channel=0 note=65 velocity=34 time=0\n",
      "note_off channel=0 note=30 velocity=64 time=0.010869565217391304\n",
      "note_on channel=0 note=31 velocity=73 time=0\n",
      "note_on channel=0 note=30 velocity=69 time=0.010869565217391304\n",
      "note_off channel=0 note=31 velocity=64 time=0\n",
      "note_on channel=0 note=28 velocity=67 time=0.010869565217391304\n",
      "note_off channel=0 note=30 velocity=64 time=0\n",
      "note_off channel=0 note=28 velocity=64 time=0.021739130434782608\n",
      "note_on channel=0 note=29 velocity=70 time=0\n",
      "note_on channel=0 note=52 velocity=13 time=0\n",
      "note_off channel=0 note=29 velocity=64 time=0.010869565217391304\n",
      "note_on channel=0 note=30 velocity=70 time=0\n",
      "note_on channel=0 note=72 velocity=20 time=0\n",
      "note_off channel=0 note=65 velocity=64 time=0.010869565217391304\n",
      "note_on channel=0 note=29 velocity=65 time=0.010869565217391304\n",
      "note_off channel=0 note=30 velocity=64 time=0\n",
      "note_off channel=0 note=52 velocity=64 time=0\n",
      "note_off channel=0 note=29 velocity=64 time=0.021739130434782608\n",
      "note_off channel=0 note=72 velocity=64 time=0\n",
      "note_on channel=0 note=28 velocity=67 time=0.03260869565217391\n",
      "note_off channel=0 note=28 velocity=64 time=0.010869565217391304\n",
      "note_on channel=0 note=30 velocity=75 time=0\n",
      "note_off channel=0 note=30 velocity=64 time=0.010869565217391304\n",
      "note_on channel=0 note=31 velocity=78 time=0\n",
      "note_off channel=0 note=31 velocity=64 time=0.03260869565217391\n",
      "note_on channel=0 note=29 velocity=68 time=0.03260869565217391\n",
      "note_off channel=0 note=29 velocity=64 time=0.010869565217391304\n",
      "note_on channel=0 note=30 velocity=69 time=0\n",
      "note_on channel=0 note=29 velocity=67 time=0.010869565217391304\n",
      "note_off channel=0 note=30 velocity=64 time=0\n",
      "note_on channel=0 note=27 velocity=60 time=0.021739130434782608\n",
      "note_off channel=0 note=29 velocity=64 time=0\n",
      "note_off channel=0 note=27 velocity=64 time=0.021739130434782608\n",
      "note_on channel=0 note=34 velocity=63 time=0.05434782608695652\n",
      "note_on channel=0 note=33 velocity=71 time=0.021739130434782608\n",
      "note_off channel=0 note=34 velocity=64 time=0\n",
      "note_on channel=0 note=31 velocity=72 time=0.010869565217391304\n",
      "note_off channel=0 note=33 velocity=64 time=0\n",
      "note_off channel=0 note=31 velocity=64 time=0.021739130434782608\n",
      "note_on channel=0 note=29 velocity=61 time=0.06521739130434782\n",
      "note_off channel=0 note=29 velocity=64 time=0.03260869565217391\n",
      "note_on channel=0 note=35 velocity=58 time=0.043478260869565216\n",
      "note_on channel=0 note=64 velocity=29 time=0.021739130434782608\n",
      "note_on channel=0 note=34 velocity=52 time=0.021739130434782608\n",
      "note_off channel=0 note=35 velocity=64 time=0\n",
      "note_off channel=0 note=64 velocity=64 time=0.010869565217391304\n",
      "note_off channel=0 note=34 velocity=64 time=0.010869565217391304\n",
      "note_on channel=0 note=65 velocity=36 time=0\n",
      "midi/2-Sports/ES_Take Cover - Josh Gram.mp3.mid\n",
      "<meta message set_tempo tempo=500000 time=0>\n",
      "program_change channel=0 program=0 time=0\n",
      "note_on channel=0 note=64 velocity=38 time=0\n",
      "note_on channel=0 note=66 velocity=33 time=0\n",
      "note_on channel=0 note=71 velocity=49 time=0\n",
      "note_on channel=0 note=73 velocity=40 time=0\n",
      "note_on channel=0 note=77 velocity=37 time=0\n",
      "note_on channel=0 note=80 velocity=36 time=0\n",
      "note_on channel=0 note=82 velocity=26 time=0\n",
      "note_on channel=0 note=84 velocity=13 time=0\n",
      "note_on channel=0 note=87 velocity=37 time=0\n",
      "note_on channel=0 note=88 velocity=80 time=0\n",
      "note_on channel=0 note=91 velocity=17 time=0\n",
      "note_on channel=0 note=97 velocity=14 time=0\n",
      "note_on channel=0 note=103 velocity=64 time=0\n",
      "note_on channel=0 note=45 velocity=50 time=0.010869565217391304\n",
      "note_on channel=0 note=69 velocity=67 time=0\n",
      "note_off channel=0 note=71 velocity=64 time=0.010869565217391304\n",
      "note_off channel=0 note=73 velocity=64 time=0\n",
      "note_on channel=0 note=89 velocity=39 time=0\n",
      "note_off channel=0 note=64 velocity=64 time=0.010869565217391304\n",
      "note_off channel=0 note=66 velocity=64 time=0\n",
      "note_off channel=0 note=77 velocity=64 time=0\n",
      "note_off channel=0 note=80 velocity=64 time=0\n",
      "note_off channel=0 note=82 velocity=64 time=0\n",
      "note_off channel=0 note=91 velocity=64 time=0\n",
      "note_on channel=0 note=44 velocity=50 time=0.010869565217391304\n",
      "note_off channel=0 note=45 velocity=64 time=0\n",
      "note_off channel=0 note=84 velocity=64 time=0\n",
      "note_on channel=0 note=86 velocity=31 time=0\n",
      "note_off channel=0 note=87 velocity=64 time=0\n",
      "note_off channel=0 note=89 velocity=64 time=0\n",
      "note_on channel=0 note=102 velocity=44 time=0\n",
      "note_on channel=0 note=32 velocity=46 time=0.021739130434782608\n",
      "note_on channel=0 note=101 velocity=29 time=0.010869565217391304\n",
      "note_off channel=0 note=44 velocity=64 time=0.021739130434782608\n",
      "note_off channel=0 note=86 velocity=64 time=0\n",
      "note_off channel=0 note=97 velocity=64 time=0\n",
      "note_off channel=0 note=101 velocity=64 time=0\n",
      "note_on channel=0 note=97 velocity=18 time=0.03260869565217391\n",
      "note_off channel=0 note=97 velocity=64 time=0.06521739130434782\n",
      "note_off channel=0 note=102 velocity=64 time=0.010869565217391304\n",
      "note_off channel=0 note=32 velocity=64 time=0.043478260869565216\n",
      "note_off channel=0 note=69 velocity=64 time=0.043478260869565216\n",
      "note_on channel=0 note=69 velocity=41 time=0.021739130434782608\n",
      "note_on channel=0 note=102 velocity=74 time=0.043478260869565216\n",
      "note_on channel=0 note=83 velocity=62 time=0.010869565217391304\n",
      "note_on channel=0 note=99 velocity=43 time=0\n",
      "note_on channel=0 note=64 velocity=63 time=0.010869565217391304\n",
      "note_on channel=0 note=92 velocity=61 time=0\n",
      "note_off channel=0 note=69 velocity=64 time=0.021739130434782608\n",
      "note_on channel=0 note=69 velocity=30 time=0.021739130434782608\n",
      "note_on channel=0 note=98 velocity=36 time=0\n",
      "note_off channel=0 note=103 velocity=64 time=0.010869565217391304\n",
      "note_on channel=0 note=80 velocity=50 time=0.010869565217391304\n",
      "note_on channel=0 note=85 velocity=36 time=0\n",
      "note_on channel=0 note=86 velocity=36 time=0\n",
      "note_on channel=0 note=103 velocity=61 time=0\n",
      "note_off channel=0 note=69 velocity=64 time=0.010869565217391304\n",
      "note_on channel=0 note=74 velocity=55 time=0\n",
      "note_on channel=0 note=78 velocity=45 time=0\n",
      "note_on channel=0 note=89 velocity=36 time=0\n",
      "note_on channel=0 note=91 velocity=33 time=0\n",
      "note_on channel=0 note=82 velocity=32 time=0.010869565217391304\n",
      "note_on channel=0 note=73 velocity=49 time=0.010869565217391304\n",
      "note_off channel=0 note=78 velocity=64 time=0\n",
      "note_off channel=0 note=85 velocity=64 time=0\n",
      "note_on channel=0 note=52 velocity=32 time=0.010869565217391304\n",
      "note_on channel=0 note=60 velocity=25 time=0\n",
      "note_on channel=0 note=69 velocity=36 time=0\n",
      "note_off channel=0 note=82 velocity=64 time=0\n",
      "note_off channel=0 note=89 velocity=64 time=0\n",
      "note_off channel=0 note=80 velocity=64 time=0.010869565217391304\n",
      "note_off channel=0 note=86 velocity=64 time=0\n",
      "note_on channel=0 note=96 velocity=33 time=0\n",
      "note_on channel=0 note=32 velocity=61 time=0.010869565217391304\n",
      "note_on channel=0 note=51 velocity=31 time=0\n",
      "note_off channel=0 note=52 velocity=64 time=0\n",
      "note_off channel=0 note=60 velocity=64 time=0.010869565217391304\n",
      "note_off channel=0 note=73 velocity=64 time=0\n",
      "note_off channel=0 note=74 velocity=64 time=0\n",
      "note_on channel=0 note=86 velocity=23 time=0\n",
      "note_off channel=0 note=91 velocity=64 time=0.010869565217391304\n",
      "note_off channel=0 note=86 velocity=64 time=0.021739130434782608\n",
      "note_off channel=0 note=96 velocity=64 time=0\n",
      "note_off channel=0 note=51 velocity=64 time=0.010869565217391304\n",
      "note_on channel=0 note=101 velocity=13 time=0\n",
      "note_off channel=0 note=99 velocity=64 time=0.03260869565217391\n",
      "note_off channel=0 note=98 velocity=64 time=0.010869565217391304\n",
      "note_off channel=0 note=101 velocity=64 time=0\n",
      "note_off channel=0 note=64 velocity=64 time=0.010869565217391304\n",
      "note_off channel=0 note=83 velocity=64 time=0.043478260869565216\n",
      "note_off channel=0 note=69 velocity=64 time=0.021739130434782608\n",
      "note_off channel=0 note=92 velocity=64 time=0.010869565217391304\n",
      "note_on channel=0 note=64 velocity=9 time=0.010869565217391304\n",
      "note_on channel=0 note=87 velocity=34 time=0.010869565217391304\n",
      "note_on channel=0 note=92 velocity=27 time=0\n",
      "note_on channel=0 note=68 velocity=45 time=0.010869565217391304\n",
      "note_on channel=0 note=86 velocity=28 time=0\n",
      "note_off channel=0 note=32 velocity=64 time=0.010869565217391304\n",
      "note_off channel=0 note=64 velocity=64 time=0\n"
     ]
    },
    {
     "name": "stdout",
     "output_type": "stream",
     "text": [
      "midi/2-Sports/ES_Shiatsu - Catiso.mp3.mid\n",
      "<meta message set_tempo tempo=500000 time=0>\n",
      "program_change channel=0 program=0 time=0\n",
      "note_on channel=0 note=54 velocity=47 time=0\n",
      "note_on channel=0 note=74 velocity=41 time=0\n",
      "note_on channel=0 note=78 velocity=60 time=0\n",
      "note_on channel=0 note=81 velocity=41 time=0\n",
      "note_on channel=0 note=96 velocity=37 time=0\n",
      "note_on channel=0 note=98 velocity=37 time=0\n",
      "note_on channel=0 note=100 velocity=29 time=0\n",
      "note_on channel=0 note=62 velocity=65 time=0.010869565217391304\n",
      "note_on channel=0 note=53 velocity=32 time=0.010869565217391304\n",
      "note_off channel=0 note=54 velocity=64 time=0\n",
      "note_on channel=0 note=43 velocity=28 time=0.010869565217391304\n",
      "note_on channel=0 note=91 velocity=19 time=0\n",
      "note_off channel=0 note=53 velocity=64 time=0.043478260869565216\n",
      "note_off channel=0 note=91 velocity=64 time=0.010869565217391304\n",
      "note_on channel=0 note=75 velocity=35 time=0.010869565217391304\n",
      "note_off channel=0 note=74 velocity=64 time=0.010869565217391304\n",
      "note_on channel=0 note=67 velocity=22 time=0.021739130434782608\n",
      "note_off channel=0 note=75 velocity=64 time=0\n",
      "note_on channel=0 note=87 velocity=14 time=0\n",
      "note_on channel=0 note=55 velocity=38 time=0.010869565217391304\n",
      "note_on channel=0 note=75 velocity=43 time=0\n",
      "note_on channel=0 note=77 velocity=42 time=0\n",
      "note_off channel=0 note=78 velocity=64 time=0\n",
      "note_on channel=0 note=50 velocity=43 time=0.010869565217391304\n",
      "note_off channel=0 note=43 velocity=64 time=0.010869565217391304\n",
      "note_off channel=0 note=87 velocity=64 time=0\n",
      "note_on channel=0 note=78 velocity=25 time=0.010869565217391304\n",
      "note_off channel=0 note=77 velocity=64 time=0.010869565217391304\n",
      "note_on channel=0 note=77 velocity=46 time=0.010869565217391304\n",
      "note_off channel=0 note=78 velocity=64 time=0.010869565217391304\n",
      "note_off channel=0 note=100 velocity=64 time=0\n",
      "note_on channel=0 note=43 velocity=36 time=0.03260869565217391\n",
      "note_on channel=0 note=70 velocity=9 time=0\n",
      "note_off channel=0 note=55 velocity=64 time=0.010869565217391304\n",
      "note_off channel=0 note=75 velocity=64 time=0\n",
      "note_off channel=0 note=96 velocity=64 time=0\n",
      "note_off channel=0 note=98 velocity=64 time=0\n",
      "note_on channel=0 note=75 velocity=45 time=0.010869565217391304\n",
      "note_off channel=0 note=70 velocity=64 time=0.021739130434782608\n",
      "note_off channel=0 note=75 velocity=64 time=0\n",
      "note_on channel=0 note=78 velocity=49 time=0\n",
      "note_off channel=0 note=77 velocity=64 time=0.010869565217391304\n",
      "note_off channel=0 note=67 velocity=64 time=0.021739130434782608\n",
      "note_on channel=0 note=77 velocity=38 time=0\n",
      "note_off channel=0 note=78 velocity=64 time=0\n",
      "note_off channel=0 note=43 velocity=64 time=0.010869565217391304\n",
      "note_on channel=0 note=78 velocity=44 time=0\n",
      "note_off channel=0 note=77 velocity=64 time=0.010869565217391304\n",
      "note_on channel=0 note=57 velocity=32 time=0.010869565217391304\n",
      "note_on channel=0 note=87 velocity=17 time=0.010869565217391304\n",
      "note_on channel=0 note=95 velocity=45 time=0\n",
      "note_off channel=0 note=50 velocity=64 time=0.010869565217391304\n",
      "note_off channel=0 note=57 velocity=64 time=0\n",
      "note_on channel=0 note=68 velocity=54 time=0\n",
      "note_on channel=0 note=79 velocity=63 time=0\n",
      "note_off channel=0 note=81 velocity=64 time=0\n",
      "note_on channel=0 note=98 velocity=20 time=0\n",
      "note_on channel=0 note=101 velocity=43 time=0\n",
      "note_on channel=0 note=54 velocity=42 time=0.010869565217391304\n",
      "note_off channel=0 note=62 velocity=64 time=0\n",
      "note_on channel=0 note=62 velocity=38 time=0.010869565217391304\n",
      "note_on channel=0 note=67 velocity=57 time=0\n",
      "note_off channel=0 note=68 velocity=64 time=0\n",
      "note_off channel=0 note=78 velocity=64 time=0\n",
      "note_off channel=0 note=87 velocity=64 time=0\n",
      "note_off channel=0 note=54 velocity=64 time=0.010869565217391304\n",
      "note_on channel=0 note=75 velocity=44 time=0\n",
      "note_on channel=0 note=50 velocity=40 time=0.010869565217391304\n",
      "note_on channel=0 note=86 velocity=15 time=0\n",
      "note_on channel=0 note=74 velocity=49 time=0.03260869565217391\n",
      "note_off channel=0 note=86 velocity=64 time=0\n",
      "note_off channel=0 note=75 velocity=64 time=0.010869565217391304\n",
      "note_on channel=0 note=77 velocity=33 time=0.043478260869565216\n",
      "note_off channel=0 note=77 velocity=64 time=0.021739130434782608\n",
      "note_on channel=0 note=55 velocity=51 time=0.010869565217391304\n",
      "note_on channel=0 note=70 velocity=14 time=0.021739130434782608\n",
      "note_off channel=0 note=70 velocity=64 time=0.03260869565217391\n",
      "note_off channel=0 note=74 velocity=64 time=0\n",
      "note_on channel=0 note=77 velocity=36 time=0\n",
      "note_off channel=0 note=101 velocity=64 time=0\n",
      "note_on channel=0 note=70 velocity=29 time=0.010869565217391304\n",
      "note_on channel=0 note=75 velocity=33 time=0\n",
      "note_off channel=0 note=95 velocity=64 time=0\n",
      "note_off channel=0 note=98 velocity=64 time=0.010869565217391304\n",
      "note_off channel=0 note=50 velocity=64 time=0.010869565217391304\n",
      "note_off channel=0 note=79 velocity=64 time=0\n",
      "note_on channel=0 note=74 velocity=38 time=0.021739130434782608\n",
      "note_off channel=0 note=75 velocity=64 time=0\n",
      "note_on channel=0 note=95 velocity=12 time=0\n",
      "note_on channel=0 note=43 velocity=29 time=0.021739130434782608\n",
      "note_off channel=0 note=67 velocity=64 time=0\n",
      "note_off channel=0 note=77 velocity=64 time=0.010869565217391304\n",
      "note_on channel=0 note=78 velocity=36 time=0\n",
      "note_off channel=0 note=95 velocity=64 time=0.010869565217391304\n",
      "note_on channel=0 note=50 velocity=40 time=0.010869565217391304\n",
      "note_off channel=0 note=74 velocity=64 time=0\n",
      "note_on channel=0 note=79 velocity=25 time=0\n",
      "note_off channel=0 note=70 velocity=64 time=0.010869565217391304\n",
      "note_on channel=0 note=74 velocity=39 time=0\n"
     ]
    }
   ],
   "source": [
    "X = []\n",
    "y = []\n",
    "for cat in song_dict.keys():\n",
    "    for fname in song_dict[cat]:\n",
    "        if fname != '.DS_Store':\n",
    "            y.append(cat)\n",
    "    #         midi_filename = 'midi/1-calming/ES_A Presence Felt - Gavin Luke.mp3.mid'\n",
    "            midi_filename = 'midi/' + cat + '/' + fname\n",
    "#             print(midi_filename)\n",
    "            midi = MidiFile(midi_filename)\n",
    "            cnt = 0\n",
    "            for msg in midi:\n",
    "                print(msg)\n",
    "                cnt+=1\n",
    "                if cnt>100:\n",
    "                    break \n",
    "\n",
    "            # save notes for the song as a list\n",
    "            notes = []\n",
    "            for msg in midi:\n",
    "                if not msg.is_meta and msg.channel == 0 and msg.type == 'note_on':\n",
    "                    data = msg.bytes()\n",
    "                    notes.append(data[1]) # we are just adding the note!\n",
    "\n",
    "            ## rescale all the notes to the [0,1] interval\n",
    "            scaler = MinMaxScaler(feature_range=(0,1))\n",
    "            scaler.fit(np.array(notes).reshape(-1,1))\n",
    "            notes = list(scaler.transform(np.array(notes).reshape(-1,1)))\n",
    "            notes = [list(note)[0] for note in notes]\n",
    "\n",
    "            X.append(notes)\n",
    "        \n",
    "print(X)\n",
    "print(y)\n"
   ]
  },
  {
   "cell_type": "code",
   "execution_count": null,
   "metadata": {},
   "outputs": [],
   "source": [
    "len(X)"
   ]
  },
  {
   "cell_type": "code",
   "execution_count": null,
   "metadata": {
    "scrolled": true
   },
   "outputs": [],
   "source": [
    "len(y)"
   ]
  },
  {
   "cell_type": "code",
   "execution_count": null,
   "metadata": {
    "scrolled": true
   },
   "outputs": [],
   "source": [
    "# generate \n",
    "from sklearn.preprocessing import LabelEncoder\n",
    "from keras.utils import np_utils\n",
    "\n",
    "# encode class values as integers\n",
    "encoder = LabelEncoder()\n",
    "encoder.fit(y)\n",
    "encoded_Y = encoder.transform(y)\n",
    "encoded_Y\n",
    "# convert integers to dummy variables (i.e. one hot encoded)\n",
    "dummy_y = np_utils.to_categorical(encoded_Y)\n",
    "dummy_y"
   ]
  },
  {
   "cell_type": "code",
   "execution_count": null,
   "metadata": {},
   "outputs": [],
   "source": [
    "from sklearn.model_selection import train_test_split\n",
    "X_train, X_test, y_train, y_test = train_test_split(X, dummy_y, test_size = 0.3, random_state = 0)\n",
    "\n"
   ]
  },
  {
   "cell_type": "code",
   "execution_count": null,
   "metadata": {},
   "outputs": [],
   "source": [
    "# set the length of all sequences to be equal to max_len\n",
    "\n",
    "max_len = 0\n",
    "temp_len = 0\n",
    "for i in range(len(X)):\n",
    "    max_len = len(X[i])\n",
    "    if max_len < temp_len:\n",
    "        max_len = temp_len\n",
    "    else:\n",
    "        temp_len = max_len\n",
    "#     print(max_len)\n",
    "max_len\n",
    "\n",
    "X_train = sequence.pad_sequences(X_train, maxlen=max_len)\n",
    "X_test = sequence.pad_sequences(X_test, maxlen=max_len)"
   ]
  },
  {
   "cell_type": "code",
   "execution_count": null,
   "metadata": {},
   "outputs": [],
   "source": [
    "X_train.shape"
   ]
  },
  {
   "cell_type": "code",
   "execution_count": null,
   "metadata": {},
   "outputs": [],
   "source": [
    "# Define a model\n",
    "n_prev = 500\n",
    "embedding_vector_length = 32\n",
    "\n",
    "model = Sequential()\n",
    "model.add(Embedding(n_prev, embedding_vector_length, input_length=max_len))\n",
    "# model.add(LSTM(256, input_shape=(n_prev, 1), return_sequences=True))\n",
    "model.add(LSTM(256, return_sequences=True))\n",
    "model.add(Dropout(0.3))\n",
    "model.add(LSTM(128, input_shape=(n_prev, 1), return_sequences=True))\n",
    "model.add(Dropout(0.3))\n",
    "model.add(LSTM(64, input_shape=(n_prev, 1), return_sequences=False))\n",
    "model.add(Dropout(0.3))\n",
    "# model.add(Dense(1))\n",
    "model.add(Dense(5, activation = 'sigmoid'))\n",
    "\n",
    "optimizer = Adam(lr=0.001)\n",
    "model.compile(loss='categorical_crossentropy', \n",
    "              optimizer=optimizer, metrics=['accuracy'])\n",
    "print(model.summary())\n",
    "\n",
    "# train model\n",
    "model.fit(np.array(X_train), np.array(y_train), \n",
    "          32, 20, verbose=1)#, callbacks=[model_save_callback])"
   ]
  },
  {
   "cell_type": "code",
   "execution_count": null,
   "metadata": {},
   "outputs": [],
   "source": [
    "scores = model.evaluate(X_test, y_test, verbose=0)\n",
    "print(\"Out-of-Sample Accuracy: %.2f%%\" % (scores[1]*100))\n"
   ]
  },
  {
   "cell_type": "code",
   "execution_count": null,
   "metadata": {},
   "outputs": [],
   "source": []
  }
 ],
 "metadata": {
  "kernelspec": {
   "display_name": "Python 3",
   "language": "python",
   "name": "python3"
  },
  "language_info": {
   "codemirror_mode": {
    "name": "ipython",
    "version": 3
   },
   "file_extension": ".py",
   "mimetype": "text/x-python",
   "name": "python",
   "nbconvert_exporter": "python",
   "pygments_lexer": "ipython3",
   "version": "3.7.4"
  }
 },
 "nbformat": 4,
 "nbformat_minor": 4
}
